<svg version="1.1" id="Layer_1" xmlns="http://www.w3.org/2000/svg" xmlns:xlink="http://www.w3.org/1999/xlink" x="0px" y="0px"
	 width="100%" viewBox="0 0 1440 2880" enable-background="new 0 0 1440 2880" xml:space="preserve">
<path fill="#011F4B" opacity="1.000000" stroke="none" 
	d="
M274.000000,2881.000000 
	C182.666672,2881.000000 91.833336,2881.000000 1.000000,2881.000000 
	C1.000000,1921.000000 1.000000,961.000000 1.000000,1.000000 
	C481.000000,1.000000 961.000000,1.000000 1441.000000,1.000000 
	C1441.000000,961.000000 1441.000000,1921.000000 1441.000000,2881.000000 
	C1052.166626,2881.000000 663.333313,2881.000000 274.000000,2881.000000 
M1188.794922,978.169189 
	C1200.304932,976.423340 1211.814941,974.677490 1223.325073,972.931641 
	C1223.339233,972.546265 1223.353394,972.160828 1223.367554,971.775452 
	C1140.726440,922.729065 1058.085327,873.682678 974.323242,823.971069 
	C974.323242,827.605469 974.323181,829.722900 974.323181,831.840393 
	C974.323059,876.836304 974.270569,921.832336 974.408752,966.827820 
	C974.421753,971.051880 973.284912,973.844788 969.847656,976.492615 
	C953.481018,989.100708 937.334961,1001.995239 921.121643,1014.802063 
	C919.797546,1015.847961 918.557617,1017.000427 916.424561,1018.839783 
	C950.151001,1013.839722 982.582520,1009.031616 1015.011353,1005.127502 
	C1014.013428,1013.036804 1013.015564,1020.946167 1011.220642,1029.080933 
	C1007.109558,1029.726685 1003.001953,1030.395874 998.886780,1031.014282 
	C957.735901,1037.199097 916.583740,1043.375732 875.431885,1049.554077 
	C839.053467,1055.015869 802.679504,1060.507202 766.295410,1065.931030 
	C720.032532,1072.827515 673.758179,1079.646606 627.495056,1086.541016 
	C586.334595,1092.674927 545.182739,1098.865967 504.027161,1105.032349 
	C462.871429,1111.198730 421.717102,1117.374268 380.559845,1123.530396 
	C339.238342,1129.711182 297.912842,1135.865356 256.591400,1142.046631 
	C243.471817,1144.009277 230.359741,1146.022339 217.232117,1148.014160 
	C217.232117,1247.922607 217.232117,1347.351685 217.232117,1447.289795 
	C230.981689,1445.373413 244.437286,1443.497925 257.930817,1442.609741 
	C257.957092,1452.750488 257.983398,1462.891113 257.297272,1473.397217 
	C244.016739,1475.426758 230.736206,1477.456421 217.264832,1479.515137 
	C217.264832,1579.337769 217.264832,1678.832275 217.264832,1778.503906 
	C218.353989,1778.392578 219.166077,1778.334351 219.970947,1778.223633 
	C232.649536,1776.480225 245.327225,1774.730225 258.002777,1773.921387 
	C258.006134,1782.570679 258.009521,1791.220093 257.221771,1800.113647 
	C244.379486,1802.109497 231.537216,1804.105469 217.241623,1806.327271 
	C223.584244,1810.119385 228.555389,1813.089844 233.525009,1816.062744 
	C254.525131,1828.625488 275.524689,1841.188965 295.698181,1853.981445 
	C291.341248,1855.085815 286.953705,1856.083618 282.635986,1857.324585 
	C278.388031,1858.545410 274.135742,1860.183472 273.216614,1865.172974 
	C272.296387,1870.168579 275.606476,1873.388916 279.263123,1875.809204 
	C286.752808,1880.766479 294.397888,1885.502441 302.116608,1890.098267 
	C357.780182,1923.241333 413.467133,1956.345215 469.177917,1989.408813 
	C477.050140,1994.080933 484.891235,1998.879883 493.108551,2002.876099 
	C502.336517,2007.363525 508.924133,2003.851318 510.854675,1994.014038 
	C511.554932,1990.445801 511.937714,1986.756104 511.946381,1983.120483 
	C512.026855,1949.295410 512.280884,1915.466431 511.849457,1881.646606 
	C511.683075,1868.601440 516.474182,1858.960327 526.791016,1851.312134 
	C533.724670,1846.172241 540.296692,1840.486816 546.616272,1834.600708 
	C549.766907,1831.665771 553.014526,1827.105225 550.152222,1823.157715 
	C548.293762,1820.595093 543.229675,1819.070923 539.708618,1819.244751 
	C529.767883,1819.735229 519.873840,1821.274658 509.977051,1822.525024 
	C495.955109,1824.296509 481.947266,1826.179077 467.747925,1827.090454 
	C467.719452,1821.671753 467.875061,1816.243530 467.599335,1810.837402 
	C467.408081,1807.087280 468.586517,1804.477905 472.794800,1803.298340 
	C474.429169,1803.387695 476.104858,1803.757935 477.691803,1803.524658 
	C506.340454,1799.314941 534.978821,1795.035278 563.618530,1790.764648 
	C623.861267,1781.782104 684.108032,1772.827393 744.344421,1763.802734 
	C808.037903,1754.259888 871.720825,1744.646851 935.408936,1735.068359 
	C979.348938,1728.460083 1023.285400,1721.828613 1067.231934,1715.264038 
	C1097.516479,1710.740356 1127.822266,1706.357544 1158.106445,1701.831055 
	C1188.390503,1697.304443 1218.691162,1692.872925 1248.921265,1688.007202 
	C1262.946045,1685.750000 1267.994629,1679.180176 1267.996094,1665.109375 
	C1268.002930,1598.135620 1268.000244,1531.161987 1267.999634,1464.188232 
	C1267.999512,1444.196045 1268.081055,1424.203369 1267.963135,1404.211792 
	C1267.883179,1390.663452 1260.215576,1384.423950 1246.954956,1386.462891 
	C1239.731689,1387.573364 1232.431763,1388.184937 1225.022217,1388.091309 
	C1225.069702,1378.721924 1225.117188,1369.352661 1225.962036,1359.897705 
	C1235.295288,1358.265259 1244.673584,1356.850464 1253.946045,1354.924927 
	C1260.270020,1353.611694 1264.712036,1349.469604 1266.487061,1343.268677 
	C1267.567871,1339.492310 1267.932739,1335.396973 1267.937866,1331.443970 
	C1268.022583,1266.008545 1267.999756,1200.572876 1267.999756,1135.137329 
	C1267.999756,1114.990479 1268.063110,1094.843506 1267.973022,1074.697021 
	C1267.903564,1059.176880 1260.720337,1053.241577 1245.450806,1055.576294 
	C1238.722046,1056.605103 1231.929443,1057.216187 1225.022949,1057.088257 
	C1225.070923,1051.388916 1225.118774,1045.689453 1225.956177,1039.903198 
	C1233.880981,1038.140015 1242.119141,1037.213013 1249.647949,1034.392578 
	C1258.213379,1031.183960 1260.150879,1023.201050 1253.221558,1017.534851 
	C1244.753662,1010.610657 1234.593994,1005.755310 1225.014893,999.286377 
	C1224.304565,998.737427 1223.576294,997.701416 1222.886841,997.726562 
	C1220.336182,997.819641 1217.798218,998.263062 1214.869507,997.926758 
	C1213.304688,996.485046 1211.917603,994.756897 1210.142090,993.654480 
	C1204.370117,990.070557 1198.379395,986.836670 1192.641357,983.201965 
	C1190.812622,982.043518 1189.509644,980.054993 1188.794922,978.169189 
z"/>
<path fill="#70D0D3" opacity="1.000000" stroke="none" 
	d="
M257.892883,1441.622559 
	C244.437286,1443.497925 230.981689,1445.373413 217.232117,1447.289795 
	C217.232117,1347.351685 217.232117,1247.922607 217.232117,1148.014160 
	C230.359741,1146.022339 243.471817,1144.009277 256.591400,1142.046631 
	C297.912842,1135.865356 339.238342,1129.711182 380.559845,1123.530396 
	C421.717102,1117.374268 462.871429,1111.198730 504.027161,1105.032349 
	C545.182739,1098.865967 586.334595,1092.674927 627.495056,1086.541016 
	C673.758179,1079.646606 720.032532,1072.827515 766.295410,1065.931030 
	C802.679504,1060.507202 839.053467,1055.015869 875.431885,1049.554077 
	C916.583740,1043.375732 957.735901,1037.199097 998.886780,1031.014282 
	C1003.001953,1030.395874 1007.109558,1029.726685 1012.036255,1029.001709 
	C1039.515381,1024.952881 1066.182739,1021.008179 1092.841553,1017.007507 
	C1133.649170,1010.883545 1174.451172,1004.721008 1215.255493,998.574829 
	C1217.798218,998.263062 1220.336182,997.819641 1222.886841,997.726562 
	C1223.576294,997.701416 1224.304565,998.737427 1225.024658,1000.110107 
	C1225.078491,1013.952576 1225.122559,1026.971313 1225.166748,1039.990112 
	C1225.118774,1045.689453 1225.070923,1051.388916 1225.029663,1058.015625 
	C1225.036377,1138.203125 1225.036377,1217.463257 1225.036377,1296.738159 
	C1192.556030,1301.570312 1160.778809,1306.288208 1129.004883,1311.027344 
	C1083.565552,1317.804688 1038.127441,1324.590942 992.690674,1331.385498 
	C946.924194,1338.229248 901.159424,1345.084351 855.394836,1351.941040 
	C809.467651,1358.821899 763.543396,1365.722778 717.614502,1372.592163 
	C674.317383,1379.067993 631.014465,1385.505493 587.716553,1391.976074 
	C544.421204,1398.446167 501.128693,1404.934814 457.835327,1411.417847 
	C414.210236,1417.950439 370.581482,1424.458618 326.962494,1431.031494 
	C303.930328,1434.502319 280.915527,1438.088501 257.892883,1441.622559 
M386.275360,1266.968140 
	C364.302826,1249.659668 342.254761,1232.445435 320.427002,1214.956299 
	C316.474396,1211.789429 312.963318,1211.445923 308.467834,1213.600220 
	C313.374420,1248.739014 318.262207,1283.743164 323.227905,1319.305298 
	C330.812531,1318.208862 337.895630,1317.184937 345.061554,1316.148926 
	C342.138977,1294.976929 339.330505,1274.631592 336.328156,1252.881592 
	C339.026276,1254.870239 340.354553,1255.804199 341.635010,1256.799561 
	C362.404846,1272.945557 383.243164,1289.005127 403.867157,1305.335449 
	C407.719635,1308.385742 411.182098,1308.440308 415.634521,1306.627197 
	C410.697266,1271.367798 405.777222,1236.231323 400.820068,1200.829712 
	C393.243011,1201.882202 386.259613,1202.852295 378.969116,1203.864990 
	C381.862732,1225.088135 384.685547,1245.792114 387.229034,1266.768677 
	C387.229034,1266.768677 386.957336,1267.048706 386.275360,1266.968140 
M886.493347,1227.092285 
	C888.829590,1243.773071 891.165833,1260.453979 893.564453,1277.579834 
	C900.664307,1276.570679 906.984436,1275.672241 913.542725,1274.740112 
	C911.436707,1259.346680 909.416260,1244.578857 907.293579,1229.064087 
	C909.098572,1229.929443 910.127869,1230.352295 911.090027,1230.894531 
	C930.867676,1242.035400 953.810791,1234.232544 961.269592,1212.862671 
	C963.808533,1205.588745 964.047363,1197.173218 963.762146,1189.336670 
	C963.392334,1179.178223 959.379333,1170.056152 952.412537,1162.269409 
	C939.539062,1147.880981 910.605103,1146.761719 900.532959,1167.396484 
	C900.282471,1167.909546 899.759644,1168.289551 899.015015,1169.121216 
	C898.292786,1165.049316 897.664612,1161.507935 896.948547,1157.470581 
	C890.205322,1158.406372 883.865662,1159.286011 877.148682,1160.218140 
	C880.248413,1182.539307 883.281799,1204.382568 886.493347,1227.092285 
M1004.916809,1147.427979 
	C1003.127991,1149.951050 1001.339233,1152.474243 999.212585,1155.473877 
	C998.726562,1152.137085 998.573120,1149.306641 997.806458,1146.653564 
	C997.478577,1145.519043 995.796265,1143.881104 994.860474,1143.963257 
	C989.130859,1144.466919 983.438843,1145.398071 977.350220,1146.239868 
	C982.879150,1185.587036 988.325562,1224.347046 993.837280,1263.571167 
	C1000.902954,1262.573364 1007.238220,1261.678711 1013.796387,1260.752441 
	C1012.728577,1252.814819 1011.749023,1245.414062 1010.733582,1238.018188 
	C1009.703796,1230.517944 1008.638550,1223.022583 1007.465454,1214.644043 
	C1009.226929,1215.643433 1010.064697,1216.104858 1010.889282,1216.588745 
	C1031.036377,1228.406738 1054.472656,1220.161499 1061.877197,1197.972534 
	C1063.963501,1191.720703 1063.794189,1184.585815 1063.927734,1177.841431 
	C1064.166138,1165.799805 1059.639893,1155.553589 1051.246582,1146.858765 
	C1040.024292,1135.233276 1015.309387,1134.106323 1004.916809,1147.427979 
M591.284729,1222.166260 
	C587.741028,1215.433594 584.197327,1208.700928 580.654419,1201.969849 
	C576.911987,1202.452515 573.632263,1203.047607 570.328369,1203.252808 
	C567.109741,1203.452515 565.808594,1205.057739 565.281372,1208.102539 
	C564.345398,1213.507812 563.101318,1218.860718 561.945312,1224.226685 
	C559.952393,1233.477539 557.928223,1242.721802 555.633850,1253.271118 
	C548.746887,1238.710571 542.557007,1225.468384 536.164062,1212.325073 
	C535.449524,1210.855957 533.500916,1208.867065 532.263550,1208.960571 
	C525.920715,1209.439087 519.623352,1210.520752 512.860596,1211.453735 
	C513.905457,1213.648071 514.642761,1215.291748 515.458496,1216.895386 
	C525.791138,1237.210083 536.135986,1257.518555 546.475647,1277.829712 
	C551.391052,1287.485474 551.376038,1287.398193 562.002747,1285.828735 
	C564.892456,1285.401978 566.301025,1284.205688 566.831787,1281.309082 
	C568.090454,1274.439087 569.588440,1267.612549 571.028320,1260.776489 
	C573.017883,1251.330566 575.042908,1241.892212 577.331543,1231.140991 
	C584.829224,1245.349487 591.649048,1258.270630 598.466125,1271.193359 
	C603.273132,1280.305542 603.242676,1280.110962 613.419678,1278.611328 
	C616.911804,1278.096680 617.983093,1276.595581 618.575806,1273.375366 
	C621.285889,1258.651978 624.250305,1243.975220 627.141174,1229.285400 
	C629.373047,1217.943604 631.631165,1206.607056 634.020508,1194.546753 
	C626.861755,1195.493774 620.451233,1196.220215 614.104675,1197.317139 
	C613.193970,1197.474487 612.143616,1199.336670 611.920227,1200.550049 
	C610.474487,1208.403198 609.254517,1216.297852 607.932434,1224.174072 
	C606.778503,1231.048462 605.587708,1237.916870 604.413208,1244.787964 
	C604.034851,1244.793457 603.656433,1244.799072 603.278076,1244.804565 
	C599.410339,1237.468140 595.542664,1230.131714 591.284729,1222.166260 
M797.774353,1150.198853 
	C787.036560,1185.613525 776.298767,1221.028076 765.336304,1257.183838 
	C768.859863,1256.724121 771.462769,1256.413574 774.056641,1256.040161 
	C779.485352,1255.258545 786.501099,1256.212646 789.897217,1253.156250 
	C793.444153,1249.964355 793.802185,1242.963013 794.986938,1237.503906 
	C795.801575,1233.750000 797.676270,1232.470581 801.306580,1232.037720 
	C812.377258,1230.717773 823.427856,1229.185669 834.438354,1227.434814 
	C837.299316,1226.979858 838.689636,1227.779785 839.957581,1230.165771 
	C842.221130,1234.425049 844.657776,1238.601196 847.226746,1242.683350 
	C847.916138,1243.778687 849.431458,1245.226929 850.420776,1245.122437 
	C858.258240,1244.294556 866.060120,1243.130493 874.478455,1241.987549 
	C873.028381,1239.682617 872.078430,1238.141602 871.098633,1236.619751 
	C851.904053,1206.804932 832.639221,1177.034790 813.599304,1147.121582 
	C811.399292,1143.665161 809.217102,1142.518433 805.200806,1143.032349 
	C801.031494,1143.566040 798.331360,1144.954834 797.774353,1150.198853 
M466.844788,1215.911865 
	C443.222687,1218.341675 428.187988,1245.130859 432.899872,1265.525635 
	C436.701202,1281.979004 445.943970,1293.064819 461.955322,1297.967651 
	C478.290527,1302.969727 492.832703,1298.843506 505.485443,1287.627319 
	C506.311737,1286.894897 507.426544,1285.726440 507.347198,1284.857544 
	C506.833160,1279.228516 506.025024,1273.626221 505.249603,1267.513672 
	C481.429321,1285.912842 458.470276,1285.355713 454.527069,1266.587402 
	C473.362183,1263.926270 492.178925,1261.267700 511.342041,1258.560303 
	C510.801117,1254.467285 510.549805,1250.979858 509.855255,1247.583130 
	C506.774841,1232.518433 499.301636,1220.850464 483.642181,1216.723755 
	C478.628632,1215.402466 473.078888,1216.115967 466.844788,1215.911865 
M691.121399,1205.040771 
	C693.943604,1205.969971 696.765869,1206.899170 700.178467,1208.022705 
	C699.472656,1203.038818 699.130005,1198.388306 698.029968,1193.924194 
	C697.575623,1192.080200 695.705017,1189.502197 694.119324,1189.210571 
	C687.812378,1188.050537 681.367981,1187.156006 674.966675,1187.102417 
	C665.115234,1187.020020 657.007629,1191.244873 650.653198,1198.841675 
	C641.721191,1209.520020 645.528687,1232.288696 663.323303,1235.203247 
	C669.548523,1236.222900 675.788025,1237.515625 681.773254,1239.450317 
	C683.954895,1240.155518 686.795166,1243.048828 686.851624,1245.015259 
	C686.919678,1247.384399 684.916016,1250.823364 682.798279,1252.041504 
	C677.922119,1254.846069 672.394592,1255.994873 666.613342,1254.399780 
	C661.517456,1252.993896 656.355774,1251.826782 651.238586,1250.557983 
	C650.054504,1265.050537 651.900879,1267.708496 665.563110,1271.087036 
	C666.037537,1271.204346 666.475037,1271.531982 666.948792,1271.582275 
	C681.032532,1273.078125 693.900391,1270.654175 703.440918,1259.151245 
	C712.265503,1248.511475 710.197693,1227.606934 691.499084,1223.940186 
	C686.113464,1222.884277 680.689880,1222.002075 675.340149,1220.790649 
	C671.667175,1219.958984 668.197632,1218.512085 667.841675,1213.964966 
	C667.481995,1209.371582 670.343750,1206.210815 674.130798,1205.493896 
	C679.370911,1204.501953 684.895203,1205.011475 691.121399,1205.040771 
z"/>
<path fill="#70D0D3" opacity="1.000000" stroke="none" 
	d="
M1225.164673,1359.983276 
	C1225.117188,1369.352661 1225.069702,1378.721924 1225.029541,1389.019043 
	C1225.036743,1469.238037 1225.036743,1548.529419 1225.036743,1628.190552 
	C1217.664062,1629.295532 1210.608887,1630.356079 1203.552734,1631.409912 
	C1159.932007,1637.924683 1116.310913,1644.436768 1072.690308,1650.952271 
	C1029.069214,1657.468018 985.448364,1663.985107 941.827820,1670.504150 
	C900.675903,1676.654175 859.524292,1682.805908 818.373108,1688.960327 
	C774.917114,1695.459595 731.462463,1701.967407 688.005859,1708.462646 
	C644.385315,1714.982422 600.761841,1721.482910 557.141968,1728.007202 
	C513.686340,1734.506958 470.236420,1741.045044 426.778687,1747.530762 
	C383.156555,1754.041016 339.524139,1760.482300 295.904480,1767.009277 
	C283.256653,1768.901733 270.637421,1770.985474 258.005066,1772.981567 
	C245.327225,1774.730225 232.649536,1776.480225 219.970947,1778.223633 
	C219.166077,1778.334351 218.353989,1778.392578 217.264832,1778.503906 
	C217.264832,1678.832275 217.264832,1579.337769 217.264832,1479.515137 
	C230.736206,1477.456421 244.016739,1475.426758 258.081665,1473.251465 
	C261.493561,1472.748779 264.125580,1472.421997 266.747925,1472.030518 
	C308.075958,1465.861572 349.404633,1459.696899 390.729340,1453.505615 
	C431.887268,1447.339478 473.038666,1441.129761 514.197144,1434.967407 
	C548.443604,1429.839966 582.699829,1424.778320 616.945068,1419.643188 
	C666.992798,1412.138306 717.029724,1404.561768 767.080200,1397.075684 
	C810.547241,1390.574097 854.029480,1384.173828 897.500183,1377.696289 
	C950.163391,1369.849121 1002.822510,1361.974365 1055.481445,1354.098511 
	C1103.887573,1346.858887 1152.290283,1339.595703 1200.696777,1332.358398 
	C1208.660400,1331.167725 1216.635864,1330.056030 1225.164673,1328.827271 
	C1225.164673,1339.694946 1225.164673,1349.839111 1225.164673,1359.983276 
M1013.743896,1542.217773 
	C1018.701538,1539.046997 1023.659119,1535.876221 1028.739136,1532.627075 
	C1032.887817,1537.971924 1036.480713,1539.972778 1042.220215,1537.443115 
	C1047.174561,1535.259399 1051.415527,1531.456909 1056.056152,1528.312988 
	C1060.426147,1533.684937 1064.421021,1535.630127 1070.530518,1532.866943 
	C1075.750244,1530.506226 1080.234497,1526.519531 1085.185181,1523.156250 
	C1090.474976,1529.845337 1098.348877,1530.635132 1105.862915,1527.117554 
	C1112.678223,1523.927246 1118.518433,1518.654053 1124.962769,1514.178101 
	C1127.511353,1518.855957 1131.874756,1522.625610 1138.991089,1522.168213 
	C1146.020386,1521.716431 1150.153931,1517.044434 1153.951172,1511.893677 
	C1159.726929,1518.217773 1164.813110,1519.564331 1170.606079,1516.640991 
	C1175.072388,1514.387207 1177.050537,1510.501709 1176.094482,1505.860840 
	C1169.142822,1506.259399 1168.009766,1505.006226 1168.394653,1498.016113 
	C1169.383545,1480.054565 1170.279907,1462.088013 1171.198242,1444.122559 
	C1171.263550,1442.842773 1171.206787,1441.556641 1171.206787,1439.372681 
	C1167.077271,1440.588135 1163.664429,1441.792725 1160.156494,1442.565308 
	C1157.047363,1443.250122 1155.810425,1444.772217 1155.736572,1448.021484 
	C1155.595093,1454.248291 1155.007935,1460.465088 1154.594849,1466.854248 
	C1146.204834,1462.958618 1137.109253,1465.451782 1131.202515,1473.086548 
	C1124.676270,1481.521973 1122.585815,1491.291138 1122.821167,1501.746094 
	C1123.022949,1510.712769 1112.563721,1519.618652 1103.607178,1518.237549 
	C1099.113770,1517.544678 1098.651978,1514.004883 1097.862793,1510.530518 
	C1097.103882,1507.189819 1098.621826,1505.898804 1101.578735,1504.748291 
	C1109.560669,1501.642578 1115.497437,1496.276489 1117.961060,1487.784790 
	C1119.416626,1482.767456 1119.446411,1477.639526 1115.702271,1473.632568 
	C1111.895508,1469.558716 1106.816040,1470.522095 1102.080078,1471.761597 
	C1091.301392,1474.582275 1083.508545,1485.133423 1082.096436,1499.001465 
	C1081.644043,1503.444824 1081.798950,1507.964478 1081.888916,1512.444946 
	C1081.987183,1517.335327 1077.980469,1522.290894 1073.660400,1521.883789 
	C1068.128174,1521.362549 1069.803467,1516.873901 1069.876831,1513.738525 
	C1070.087158,1504.748901 1070.746460,1495.770752 1071.035156,1486.781738 
	C1071.137573,1483.592773 1071.666504,1481.358398 1075.473999,1480.874878 
	C1076.523193,1480.741699 1077.331055,1478.707275 1078.999390,1476.596558 
	C1075.531494,1476.596558 1073.932129,1476.596558 1072.108887,1476.596558 
	C1072.108887,1471.064209 1072.108887,1465.789917 1072.108887,1460.161255 
	C1070.560547,1460.489502 1069.283569,1460.691284 1068.045410,1461.033203 
	C1057.094116,1464.056641 1057.135132,1464.067505 1056.161011,1475.263428 
	C1056.028076,1476.790405 1055.714478,1479.133057 1054.743652,1479.619629 
	C1048.971069,1482.512573 1053.111328,1484.027100 1055.431885,1485.907227 
	C1055.014282,1495.160889 1054.767212,1504.463501 1054.082520,1513.733887 
	C1053.843384,1516.972778 1053.124878,1520.492554 1051.493042,1523.202148 
	C1050.387573,1525.037720 1047.315308,1526.489258 1045.105225,1526.513428 
	C1044.037476,1526.525146 1042.100098,1522.893311 1042.001099,1520.841431 
	C1041.745239,1515.539917 1042.283813,1510.199219 1042.521729,1504.874878 
	C1042.854492,1497.436401 1043.202515,1489.998535 1043.583740,1481.691162 
	C1037.589233,1483.555176 1031.290161,1481.425171 1026.950806,1486.833008 
	C1021.671509,1482.307251 1009.430725,1486.182129 1004.010498,1493.808960 
	C997.630493,1502.786011 995.615845,1512.863403 996.019043,1523.627441 
	C996.087402,1525.452393 996.400696,1527.362793 995.994995,1529.091553 
	C995.105835,1532.880371 992.723389,1535.459839 988.556885,1534.963379 
	C984.569153,1534.488403 985.181519,1531.056396 985.099304,1528.302856 
	C985.049683,1526.643555 985.249023,1524.976562 985.340149,1523.313232 
	C986.215088,1507.347290 987.103088,1491.381958 987.951477,1475.414673 
	C988.060852,1473.357056 987.966370,1471.288574 987.966370,1469.178345 
	C973.880554,1470.259888 972.460754,1471.709595 972.018311,1484.379517 
	C971.889465,1488.070679 971.547424,1491.754395 971.284912,1495.716187 
	C962.297852,1492.024780 953.210693,1494.740479 947.585632,1502.566895 
	C939.730713,1513.495728 937.976746,1525.766235 940.554749,1538.737183 
	C941.731750,1544.659058 944.834106,1549.428467 951.108521,1550.793945 
	C957.889832,1552.269653 963.586975,1549.981689 967.891357,1544.469727 
	C969.057922,1542.975952 970.147766,1541.422119 971.351379,1539.789185 
	C975.832397,1546.047729 979.449707,1548.054443 985.521057,1545.604492 
	C990.492981,1543.598267 994.739014,1539.792969 999.546143,1536.627441 
	C1002.355042,1540.501099 1006.874451,1543.158569 1013.743896,1542.217773 
M640.286194,1600.810669 
	C645.845642,1600.936401 647.515625,1598.143799 647.316406,1592.777588 
	C647.088562,1586.642090 647.802063,1580.469971 648.136597,1574.315430 
	C648.407776,1569.324829 648.127075,1564.195923 649.258911,1559.404053 
	C649.869080,1556.820679 652.808899,1554.674194 655.052002,1552.742188 
	C655.313660,1552.516846 658.075562,1554.722656 659.265198,1556.146606 
	C661.603638,1558.945679 666.780884,1558.919556 668.399353,1555.137817 
	C669.589905,1552.356079 669.513977,1548.317383 668.409180,1545.453369 
	C667.093262,1542.041870 663.259705,1541.092773 659.857178,1542.718750 
	C656.496033,1544.325073 653.490723,1546.675903 650.218445,1548.771240 
	C649.878418,1547.361328 649.516479,1545.860229 649.108887,1544.170288 
	C645.676086,1544.716187 642.573914,1545.511353 639.445312,1545.634033 
	C635.122253,1545.803589 634.022949,1547.839233 633.892578,1551.941284 
	C633.554321,1562.588989 632.949219,1573.246826 631.857910,1583.839478 
	C631.568054,1586.654175 629.712097,1589.898315 627.561096,1591.795410 
	C624.130188,1594.821411 620.219910,1592.714478 620.183655,1588.113037 
	C620.148499,1583.651611 620.558167,1579.186279 620.784363,1574.723267 
	C621.218750,1566.152954 621.661560,1557.583008 622.128540,1548.472778 
	C617.293091,1549.170532 613.291443,1549.470215 609.467529,1550.457764 
	C608.213074,1550.781738 606.664246,1552.822266 606.540222,1554.194458 
	C605.838745,1561.958740 605.724243,1569.776245 605.019409,1577.540039 
	C604.529114,1582.938843 603.821472,1588.398804 602.326782,1593.576294 
	C601.870483,1595.156738 598.478882,1595.889771 596.431580,1597.010986 
	C595.545044,1595.214478 593.935425,1593.430298 593.904297,1591.618896 
	C593.801575,1585.633301 594.260193,1579.637451 594.519470,1573.646240 
	C594.812378,1566.876709 595.122559,1560.108032 595.451782,1552.745850 
	C591.264587,1553.312012 587.847534,1553.873413 584.408447,1554.209717 
	C581.261108,1554.517700 579.680298,1555.781860 579.827881,1559.241577 
	C579.954712,1562.215210 580.248535,1565.656128 578.950439,1568.076050 
	C577.772705,1570.271484 574.645630,1571.584106 572.125977,1572.733643 
	C571.714661,1572.921143 569.506226,1570.421021 568.969849,1568.871704 
	C566.192993,1560.850098 561.582031,1557.231323 554.334534,1558.139038 
	C547.062195,1559.049927 541.062134,1562.242188 536.840088,1568.469727 
	C530.560669,1577.731445 528.696899,1588.025635 529.671448,1598.947510 
	C530.306213,1606.061035 526.375061,1612.789673 519.857239,1614.503296 
	C520.659546,1597.997314 521.454590,1581.642090 522.281616,1564.629150 
	C518.149292,1565.162842 515.061096,1565.748169 511.950531,1565.914795 
	C508.328247,1566.108765 506.748322,1567.484009 506.633698,1571.385864 
	C506.345215,1581.206055 505.795990,1591.031250 504.910400,1600.814453 
	C504.607239,1604.163818 503.372467,1607.593018 501.804199,1610.588135 
	C501.112549,1611.909180 498.289246,1613.131714 496.873230,1612.753418 
	C495.596375,1612.412354 494.200439,1609.862793 494.115936,1608.222290 
	C493.885590,1603.749512 494.291504,1599.241211 494.498718,1594.749390 
	C494.887360,1586.324219 495.313568,1577.900879 495.766785,1568.602783 
	C490.789032,1569.402588 486.525909,1569.864624 482.409363,1570.906250 
	C481.385071,1571.165405 480.308319,1573.239868 480.161957,1574.578979 
	C479.655945,1579.209106 479.469879,1583.879883 479.309235,1588.540405 
	C479.028412,1596.687378 478.579620,1604.843628 478.744202,1612.985107 
	C478.841614,1617.805542 480.712067,1622.247559 485.728760,1624.188721 
	C491.056305,1626.250244 495.857300,1624.679199 500.236206,1621.402832 
	C501.322144,1620.590454 502.333771,1619.678711 503.379578,1618.812622 
	C503.778198,1619.169800 504.176819,1619.527100 504.575439,1619.884277 
	C503.442505,1621.377686 502.517365,1623.109009 501.134674,1624.316406 
	C498.015289,1627.040039 494.310181,1629.167725 491.506561,1632.159302 
	C487.981323,1635.921021 487.853699,1640.692139 490.115204,1645.222900 
	C492.241119,1649.481812 496.270630,1650.579224 500.687988,1650.378296 
	C509.441528,1649.980347 516.205444,1644.436157 518.039368,1635.840332 
	C518.797302,1632.288086 518.669128,1628.555298 519.233887,1624.949951 
	C519.495544,1623.279663 520.028198,1621.270996 521.170654,1620.189819 
	C524.866455,1616.691772 528.902039,1613.552734 531.736938,1611.173218 
	C536.717102,1612.791382 541.378845,1615.404053 546.148438,1615.618408 
	C555.051941,1616.018677 562.118530,1611.336914 565.688599,1603.310547 
	C568.265076,1597.517944 569.979797,1590.952393 570.276978,1584.646729 
	C570.564331,1578.548218 573.653625,1577.164429 578.115540,1576.199829 
	C578.115540,1582.506592 577.970642,1588.613403 578.152344,1594.710571 
	C578.378662,1602.303589 581.456604,1607.176880 586.585388,1608.658569 
	C592.171631,1610.272339 599.225159,1607.443481 603.191956,1601.970215 
	C604.210999,1600.564209 605.160828,1599.108154 606.239380,1597.533569 
	C612.650696,1607.196167 617.513123,1607.361938 630.737976,1598.534424 
	C632.112610,1604.935425 636.421021,1600.267944 640.286194,1600.810669 
M748.632385,1534.178833 
	C746.543396,1530.040283 742.918152,1528.743286 738.631531,1529.078735 
	C730.745544,1529.695801 724.276123,1532.892578 719.758972,1539.671997 
	C714.258301,1547.927490 712.440369,1557.102417 712.914734,1566.795532 
	C713.118164,1570.952026 711.252258,1573.143188 707.671509,1574.511230 
	C704.535095,1560.629272 701.467285,1547.050537 698.411255,1533.524170 
	C684.523071,1535.070801 683.438538,1536.130493 680.814636,1548.938965 
	C679.747131,1554.150146 678.393860,1559.314453 676.909729,1564.424194 
	C676.132019,1567.102051 675.272400,1569.993042 673.604126,1572.126587 
	C669.998657,1576.737549 669.291565,1581.411255 671.927368,1586.522705 
	C674.655029,1591.812500 679.319397,1594.118408 685.077881,1593.943726 
	C692.166016,1593.728638 698.435547,1591.334351 703.255981,1585.876709 
	C706.331726,1582.394287 709.358093,1578.868286 712.590759,1575.150146 
	C720.416626,1586.571777 724.830261,1588.534790 734.783325,1586.282593 
	C743.945312,1584.209595 750.165283,1578.242065 755.551025,1570.101807 
	C757.390015,1577.004272 760.758362,1581.912231 767.508240,1580.808472 
	C772.792236,1579.944702 777.748291,1577.075073 783.959473,1574.666260 
	C782.450195,1576.382324 781.607544,1577.772339 780.390747,1578.634277 
	C777.818665,1580.456787 774.861206,1581.763672 772.402466,1583.711914 
	C767.021729,1587.975342 765.593140,1594.272583 768.421814,1599.759277 
	C770.985229,1604.731445 777.265869,1607.144165 783.552246,1605.571655 
	C792.293701,1603.385132 797.387451,1596.965332 797.979675,1586.893066 
	C799.084229,1568.108521 800.117676,1549.318481 800.979980,1530.521606 
	C801.160278,1526.590942 801.571533,1523.705688 806.491272,1523.565552 
	C807.594055,1523.533936 808.639038,1521.475952 809.710632,1520.350708 
	C809.387268,1519.957886 809.063965,1519.565186 808.740601,1519.172363 
	C806.652161,1519.296997 804.563721,1519.421631 802.125000,1519.567017 
	C802.125000,1516.246582 801.921143,1513.108032 802.176880,1510.007446 
	C802.490784,1506.201294 803.702515,1502.105591 807.894348,1501.703613 
	C810.018921,1501.499878 812.440552,1504.393677 814.727905,1505.887207 
	C817.399536,1507.151855 818.290527,1505.562744 817.928894,1502.610962 
	C817.100403,1495.848633 810.470154,1491.116089 803.310547,1492.283081 
	C794.179199,1493.771240 787.781677,1500.251831 787.028442,1509.890381 
	C785.809326,1525.491821 785.289246,1541.148560 784.026123,1556.745605 
	C783.749451,1560.162109 782.116516,1563.804199 780.093628,1566.611206 
	C778.975647,1568.162476 775.571289,1569.037354 773.546631,1568.600342 
	C772.328979,1568.337524 771.013794,1564.945679 771.062744,1562.993042 
	C771.325562,1552.509155 772.006836,1542.035889 772.536194,1531.558472 
	C773.011841,1522.144287 773.477905,1512.729492 773.995300,1502.372070 
	C769.801147,1503.584717 766.539185,1504.755981 763.177917,1505.438965 
	C759.437744,1506.198853 758.142700,1508.138306 758.005432,1511.963501 
	C757.468079,1526.939697 756.076233,1541.902222 756.037537,1556.872559 
	C756.015442,1565.406250 746.131775,1575.880371 737.859070,1576.647461 
	C733.183167,1577.081055 730.663147,1575.197021 729.453674,1570.819336 
	C728.322021,1566.723389 728.925415,1564.400757 733.570374,1562.594482 
	C746.145508,1557.704102 752.079041,1546.379761 748.632385,1534.178833 
M405.817474,1598.189087 
	C405.533325,1603.344849 405.194550,1608.498413 404.977051,1613.656982 
	C404.594513,1622.731934 394.980957,1631.910645 385.832489,1632.129150 
	C380.765717,1632.250244 379.517487,1628.994629 378.371368,1625.039185 
	C377.180267,1620.928833 379.163635,1619.602905 382.594940,1618.239990 
	C393.593018,1613.871826 399.822540,1604.623657 399.049957,1594.532471 
	C398.525299,1587.679688 394.786346,1584.328125 387.876312,1584.685913 
	C379.887390,1585.099365 373.520538,1588.463501 369.000153,1595.203979 
	C363.890961,1602.822510 362.057465,1611.322998 361.996613,1620.328491 
	C361.934296,1629.548950 356.972870,1636.023315 348.175446,1638.326172 
	C342.445374,1639.826050 339.591553,1638.720947 337.914948,1634.352905 
	C335.825378,1628.908691 336.548859,1627.418823 342.680664,1624.537598 
	C352.616180,1619.868896 358.794739,1610.474976 357.910645,1601.382324 
	C357.261627,1594.707275 353.561646,1591.008057 347.252075,1591.301392 
	C339.962738,1591.640015 333.494843,1594.174927 329.029663,1600.239868 
	C320.421234,1611.932739 319.035706,1625.085449 322.339325,1638.782349 
	C324.026245,1645.776489 329.123505,1649.075562 336.426636,1649.154175 
	C346.359619,1649.260986 353.978302,1644.751221 360.041992,1637.196411 
	C361.100281,1635.877930 362.141052,1634.545288 363.315247,1633.060791 
	C369.101013,1641.840332 374.416046,1644.018677 384.106750,1641.809937 
	C392.331482,1639.935181 398.446198,1634.826172 404.083160,1628.610596 
	C403.493530,1640.767212 402.903931,1652.923828 402.276306,1665.864258 
	C406.668854,1664.096191 409.962677,1662.484741 413.429016,1661.453003 
	C417.125122,1660.353027 418.118469,1658.150635 418.173309,1654.482178 
	C418.276245,1647.597168 418.938324,1640.720459 419.373138,1633.755615 
	C432.072998,1636.870483 441.748047,1632.328125 446.737579,1620.764282 
	C451.553223,1609.603516 451.430511,1597.993774 447.944153,1586.536743 
	C445.674225,1579.077148 439.854431,1576.062866 432.269806,1578.069214 
	C428.857300,1578.971802 425.708862,1580.872559 422.343628,1582.363403 
	C422.116486,1580.313477 421.903656,1578.392578 421.644196,1576.051025 
	C417.724609,1576.673950 414.160675,1577.458984 410.557007,1577.746216 
	C407.504852,1577.989380 406.645996,1579.562012 406.560364,1582.268555 
	C406.402313,1587.262573 406.103210,1592.252197 405.817474,1598.189087 
M892.104431,1587.373535 
	C894.265076,1586.497803 896.363464,1585.385254 898.599731,1584.797485 
	C902.807617,1583.691406 904.254333,1581.263428 904.219543,1576.877808 
	C904.166931,1570.253052 904.918030,1563.621948 905.328735,1556.974243 
	C921.261902,1559.507080 931.663879,1553.347412 934.573425,1538.005005 
	C936.147400,1529.705444 935.931702,1520.706421 934.642029,1512.311890 
	C932.897766,1500.958130 923.187500,1497.276611 913.047424,1502.987183 
	C911.550720,1503.830200 910.083618,1504.725830 908.383301,1505.726196 
	C908.102905,1503.234985 907.887024,1501.316895 907.632507,1499.055054 
	C903.974365,1499.628174 900.726135,1500.376099 897.443420,1500.586670 
	C893.916870,1500.812988 892.585388,1502.351318 892.464905,1505.865112 
	C892.122437,1515.852417 891.605652,1525.837280 890.929749,1535.807739 
	C890.684631,1539.424194 890.116028,1543.089600 889.111877,1546.564209 
	C888.056091,1550.217896 885.453003,1552.862671 881.311035,1551.952759 
	C877.265320,1551.064087 878.106689,1547.357422 878.233948,1544.510498 
	C878.687988,1534.360229 879.356628,1524.219604 879.902039,1514.073242 
	C880.005188,1512.153931 879.916748,1510.224487 879.916748,1507.808472 
	C875.706116,1508.376831 872.278137,1508.944824 868.827393,1509.275024 
	C865.552979,1509.588379 864.375488,1511.259399 864.272766,1514.484131 
	C863.970459,1523.973267 863.653992,1533.474243 862.854675,1542.929321 
	C862.542542,1546.620605 861.341553,1550.404175 859.710938,1553.737427 
	C859.022949,1555.143921 856.102478,1556.229614 854.345947,1556.044556 
	C853.338562,1555.938477 851.932129,1552.999878 851.912354,1551.322266 
	C851.839844,1545.168213 852.258850,1539.007812 852.519470,1532.850830 
	C852.806458,1526.073608 853.122742,1519.297363 853.459229,1511.785034 
	C848.531982,1512.597656 844.295959,1513.190918 840.121643,1514.075439 
	C839.303223,1514.248901 838.162415,1515.518799 838.117737,1516.334961 
	C837.398865,1529.468628 836.538574,1542.607422 836.382812,1555.752930 
	C836.322876,1560.816040 838.324646,1565.882202 843.936707,1567.604492 
	C849.855164,1569.421021 855.177795,1567.636963 859.438354,1563.221313 
	C861.243408,1561.350464 862.598633,1559.045776 864.455811,1556.536499 
	C866.805176,1561.943848 870.623413,1565.340698 876.230591,1563.826050 
	C880.938599,1562.554321 885.254944,1559.832764 889.842346,1557.708008 
	C889.352844,1566.456543 888.839661,1575.423340 888.357971,1584.391846 
	C888.243896,1586.515381 887.569763,1589.272339 892.104431,1587.373535 
M268.026794,1589.600952 
	C269.736816,1588.029907 271.446869,1586.458740 273.156891,1584.887695 
	C273.583466,1585.145508 274.010040,1585.403198 274.436615,1585.661011 
	C273.206146,1609.988770 271.975647,1634.316528 270.715485,1659.231201 
	C275.192657,1658.608887 278.617249,1658.037354 282.064209,1657.682617 
	C285.080933,1657.372192 286.239014,1655.934082 286.357849,1652.852051 
	C286.781403,1641.869751 287.480621,1630.898193 288.025269,1619.920044 
	C288.160065,1617.203491 287.943054,1614.433960 291.766266,1614.049805 
	C295.446411,1613.680054 298.215454,1614.983643 298.870697,1618.689941 
	C299.470978,1622.085571 299.579102,1625.627197 299.427856,1629.083740 
	C299.151581,1635.395874 298.282196,1641.686401 298.125244,1647.997559 
	C298.017181,1652.343628 300.311920,1655.728516 304.984192,1655.477539 
	C308.917053,1655.266235 312.781830,1653.789307 315.334686,1653.188477 
	C314.325806,1648.109863 312.962097,1644.247559 312.921387,1640.371582 
	C312.851593,1633.732544 313.946686,1627.084351 313.938354,1620.440796 
	C313.926697,1611.177246 309.779388,1607.522827 300.577240,1607.835327 
	C299.198517,1607.882080 297.816803,1607.841919 295.410919,1607.841919 
	C303.460022,1594.903198 310.929962,1582.895508 318.808929,1570.230225 
	C311.960358,1569.984619 307.175537,1570.609131 304.779602,1576.945435 
	C303.084473,1581.428223 300.391602,1585.533936 298.140381,1589.806030 
	C295.471405,1594.870850 292.798523,1599.933716 290.127319,1604.997559 
	C289.750824,1604.881226 289.374329,1604.764893 288.997833,1604.648560 
	C289.462189,1594.514404 289.926544,1584.380249 290.390411,1574.256348 
	C275.525543,1573.781860 257.157104,1586.688965 253.619034,1600.075317 
	C252.659973,1603.703857 253.038635,1608.073853 254.074188,1611.745117 
	C255.422668,1616.526001 259.821228,1617.834351 264.985565,1615.836304 
	C261.977112,1606.935425 261.749939,1598.230225 268.026794,1589.600952 
M1192.969116,1487.615234 
	C1193.593018,1486.151855 1194.584595,1484.735718 1194.780273,1483.217163 
	C1195.927490,1474.313232 1196.903931,1465.386963 1197.908325,1456.464966 
	C1198.907227,1447.591919 1199.871094,1438.714966 1200.933594,1429.084717 
	C1196.472290,1430.375122 1192.739624,1431.655640 1188.910767,1432.500610 
	C1185.655884,1433.218994 1184.789185,1434.997437 1184.825439,1438.147827 
	C1185.003540,1453.619141 1184.979248,1469.092529 1185.059937,1484.565063 
	C1185.066650,1485.842773 1185.324463,1487.119141 1185.505127,1488.754639 
	C1187.952881,1488.424561 1190.065796,1488.139526 1192.969116,1487.615234 
M1180.787354,1504.737305 
	C1180.504028,1509.301636 1182.461060,1512.556152 1186.839966,1513.830444 
	C1190.434937,1514.876465 1194.356445,1514.274536 1195.957153,1510.741577 
	C1197.165283,1508.074951 1197.650391,1504.049927 1196.448364,1501.625610 
	C1195.347656,1499.405762 1191.649902,1497.541504 1188.925537,1497.275879 
	C1184.764282,1496.870239 1181.894287,1499.661011 1180.787354,1504.737305 
z"/>
<path fill="#101E31" opacity="1.000000" stroke="none" 
	d="
M258.003906,1773.451416 
	C270.637421,1770.985474 283.256653,1768.901733 295.904480,1767.009277 
	C339.524139,1760.482300 383.156555,1754.041016 426.778687,1747.530762 
	C470.236420,1741.045044 513.686340,1734.506958 557.141968,1728.007202 
	C600.761841,1721.482910 644.385315,1714.982422 688.005859,1708.462646 
	C731.462463,1701.967407 774.917114,1695.459595 818.373108,1688.960327 
	C859.524292,1682.805908 900.675903,1676.654175 941.827820,1670.504150 
	C985.448364,1663.985107 1029.069214,1657.468018 1072.690308,1650.952271 
	C1116.310913,1644.436768 1159.932007,1637.924683 1203.552734,1631.409912 
	C1210.608887,1630.356079 1217.664062,1629.295532 1225.036743,1628.190552 
	C1225.036743,1548.529419 1225.036743,1469.238037 1225.101562,1389.484131 
	C1232.431763,1388.184937 1239.731689,1387.573364 1246.954956,1386.462891 
	C1260.215576,1384.423950 1267.883179,1390.663452 1267.963135,1404.211792 
	C1268.081055,1424.203369 1267.999512,1444.196045 1267.999634,1464.188232 
	C1268.000244,1531.161987 1268.002930,1598.135620 1267.996094,1665.109375 
	C1267.994629,1679.180176 1262.946045,1685.750000 1248.921265,1688.007202 
	C1218.691162,1692.872925 1188.390503,1697.304443 1158.106445,1701.831055 
	C1127.822266,1706.357544 1097.516479,1710.740356 1067.231934,1715.264038 
	C1023.285400,1721.828613 979.348938,1728.460083 935.408936,1735.068359 
	C871.720825,1744.646851 808.037903,1754.259888 744.344421,1763.802734 
	C684.108032,1772.827393 623.861267,1781.782104 563.618530,1790.764648 
	C534.978821,1795.035278 506.340454,1799.314941 477.691803,1803.524658 
	C476.104858,1803.757935 474.429169,1803.387695 472.619873,1802.880371 
	C487.047119,1790.924194 501.668121,1779.409668 516.234741,1767.826904 
	C518.926819,1765.686157 521.399353,1763.269409 524.126953,1760.946533 
	C524.207886,1760.961182 524.135254,1761.009399 523.637329,1760.897461 
	C521.060913,1760.956909 518.897339,1761.092651 516.760559,1761.409424 
	C497.497711,1764.266113 478.238892,1767.149658 458.980225,1770.034546 
	C411.082947,1777.209351 363.190186,1784.414429 315.287689,1791.554077 
	C296.206879,1794.398071 277.105133,1797.101807 258.012909,1799.869385 
	C258.009521,1791.220093 258.006134,1782.570679 258.003906,1773.451416 
z"/>
<path fill="#111E31" opacity="1.000000" stroke="none" 
	d="
M1225.563354,1359.940430 
	C1225.164673,1349.839111 1225.164673,1339.694946 1225.164673,1328.827271 
	C1216.635864,1330.056030 1208.660400,1331.167725 1200.696777,1332.358398 
	C1152.290283,1339.595703 1103.887573,1346.858887 1055.481445,1354.098511 
	C1002.822510,1361.974365 950.163391,1369.849121 897.500183,1377.696289 
	C854.029480,1384.173828 810.547241,1390.574097 767.080200,1397.075684 
	C717.029724,1404.561768 666.992798,1412.138306 616.945068,1419.643188 
	C582.699829,1424.778320 548.443604,1429.839966 514.197144,1434.967407 
	C473.038666,1441.129761 431.887268,1447.339478 390.729340,1453.505615 
	C349.404633,1459.696899 308.075958,1465.861572 266.747925,1472.030518 
	C264.125580,1472.421997 261.493561,1472.748779 258.437866,1473.068726 
	C257.983398,1462.891113 257.957092,1452.750488 257.911865,1442.116211 
	C280.915527,1438.088501 303.930328,1434.502319 326.962494,1431.031494 
	C370.581482,1424.458618 414.210236,1417.950439 457.835327,1411.417847 
	C501.128693,1404.934814 544.421204,1398.446167 587.716553,1391.976074 
	C631.014465,1385.505493 674.317383,1379.067993 717.614502,1372.592163 
	C763.543396,1365.722778 809.467651,1358.821899 855.394836,1351.941040 
	C901.159424,1345.084351 946.924194,1338.229248 992.690674,1331.385498 
	C1038.127441,1324.590942 1083.565552,1317.804688 1129.004883,1311.027344 
	C1160.778809,1306.288208 1192.556030,1301.570312 1225.036377,1296.738159 
	C1225.036377,1217.463257 1225.036377,1138.203125 1225.101074,1058.479980 
	C1231.929443,1057.216187 1238.722046,1056.605103 1245.450806,1055.576294 
	C1260.720337,1053.241577 1267.903564,1059.176880 1267.973022,1074.697021 
	C1268.063110,1094.843506 1267.999756,1114.990479 1267.999756,1135.137329 
	C1267.999756,1200.572876 1268.022583,1266.008545 1267.937866,1331.443970 
	C1267.932739,1335.396973 1267.567871,1339.492310 1266.487061,1343.268677 
	C1264.712036,1349.469604 1260.270020,1353.611694 1253.946045,1354.924927 
	C1244.673584,1356.850464 1235.295288,1358.265259 1225.563354,1359.940430 
z"/>
<path fill="#56A1A4" opacity="1.000000" stroke="none" 
	d="
M523.973328,1760.980225 
	C521.399353,1763.269409 518.926819,1765.686157 516.234741,1767.826904 
	C501.668121,1779.409668 487.047119,1790.924194 472.264404,1802.739380 
	C468.586517,1804.477905 467.408081,1807.087280 467.599335,1810.837402 
	C467.875061,1816.243530 467.719452,1821.671753 467.757721,1828.012939 
	C467.767517,1870.515015 467.767517,1912.094482 467.767517,1954.855225 
	C464.939148,1953.288574 463.243866,1952.405762 461.602753,1951.431885 
	C430.527618,1932.989502 399.477905,1914.504395 368.382721,1896.095947 
	C344.458649,1881.932983 320.479279,1867.863281 296.524475,1853.752197 
	C275.524689,1841.188965 254.525131,1828.625488 233.525009,1816.062744 
	C228.555389,1813.089844 223.584244,1810.119385 217.241623,1806.327271 
	C231.537216,1804.105469 244.379486,1802.109497 257.617340,1799.991455 
	C277.105133,1797.101807 296.206879,1794.398071 315.287689,1791.554077 
	C363.190186,1784.414429 411.082947,1777.209351 458.980225,1770.034546 
	C478.238892,1767.149658 497.497711,1764.266113 516.760559,1761.409424 
	C518.897339,1761.092651 521.060913,1760.956909 523.614990,1760.878174 
	C524.017822,1761.019043 523.973328,1760.980225 523.973328,1760.980225 
z"/>
<path fill="#56A1A4" opacity="1.000000" stroke="none" 
	d="
M1015.013977,1004.223572 
	C982.582520,1009.031616 950.151001,1013.839722 916.424561,1018.839783 
	C918.557617,1017.000427 919.797546,1015.847961 921.121643,1014.802063 
	C937.334961,1001.995239 953.481018,989.100708 969.847656,976.492615 
	C973.284912,973.844788 974.421753,971.051880 974.408752,966.827820 
	C974.270569,921.832336 974.323059,876.836304 974.323181,831.840393 
	C974.323181,829.722900 974.323242,827.605469 974.323242,823.971069 
	C1058.085327,873.682678 1140.726440,922.729065 1223.367554,971.775452 
	C1223.353394,972.160828 1223.339233,972.546265 1223.325073,972.931641 
	C1211.814941,974.677490 1200.304932,976.423340 1187.985352,978.313721 
	C1129.788574,987.046631 1072.401245,995.635132 1015.013977,1004.223572 
z"/>
<path fill="#0F1D33" opacity="1.000000" stroke="none" 
	d="
M296.111328,1853.866821 
	C320.479279,1867.863281 344.458649,1881.932983 368.382721,1896.095947 
	C399.477905,1914.504395 430.527618,1932.989502 461.602753,1951.431885 
	C463.243866,1952.405762 464.939148,1953.288574 467.767517,1954.855225 
	C467.767517,1912.094482 467.767517,1870.515015 467.850464,1828.474854 
	C481.947266,1826.179077 495.955109,1824.296509 509.977051,1822.525024 
	C519.873840,1821.274658 529.767883,1819.735229 539.708618,1819.244751 
	C543.229675,1819.070923 548.293762,1820.595093 550.152222,1823.157715 
	C553.014526,1827.105225 549.766907,1831.665771 546.616272,1834.600708 
	C540.296692,1840.486816 533.724670,1846.172241 526.791016,1851.312134 
	C516.474182,1858.960327 511.683075,1868.601440 511.849457,1881.646606 
	C512.280884,1915.466431 512.026855,1949.295410 511.946381,1983.120483 
	C511.937714,1986.756104 511.554932,1990.445801 510.854675,1994.014038 
	C508.924133,2003.851318 502.336517,2007.363525 493.108551,2002.876099 
	C484.891235,1998.879883 477.050140,1994.080933 469.177917,1989.408813 
	C413.467133,1956.345215 357.780182,1923.241333 302.116608,1890.098267 
	C294.397888,1885.502441 286.752808,1880.766479 279.263123,1875.809204 
	C275.606476,1873.388916 272.296387,1870.168579 273.216614,1865.172974 
	C274.135742,1860.183472 278.388031,1858.545410 282.635986,1857.324585 
	C286.953705,1856.083618 291.341248,1855.085815 296.111328,1853.866821 
z"/>
<path fill="#111F32" opacity="1.000000" stroke="none" 
	d="
M1015.012695,1004.675537 
	C1072.401245,995.635132 1129.788574,987.046631 1187.570923,978.452271 
	C1189.509644,980.054993 1190.812622,982.043518 1192.641357,983.201965 
	C1198.379395,986.836670 1204.370117,990.070557 1210.142090,993.654480 
	C1211.917603,994.756897 1213.304688,996.485046 1215.062500,998.250793 
	C1174.451172,1004.721008 1133.649170,1010.883545 1092.841553,1017.007507 
	C1066.182739,1021.008179 1039.515381,1024.952881 1012.434753,1028.889038 
	C1013.015564,1020.946167 1014.013428,1013.036804 1015.012695,1004.675537 
z"/>
<path fill="#0B1E39" opacity="1.000000" stroke="none" 
	d="
M1225.561523,1039.946655 
	C1225.122559,1026.971313 1225.078491,1013.952576 1225.100220,1000.469604 
	C1234.593994,1005.755310 1244.753662,1010.610657 1253.221558,1017.534851 
	C1260.150879,1023.201050 1258.213379,1031.183960 1249.647949,1034.392578 
	C1242.119141,1037.213013 1233.880981,1038.140015 1225.561523,1039.946655 
z"/>
<path fill="#02214D" opacity="1.000000" stroke="none" 
	d="
M387.508423,1266.496094 
	C384.685547,1245.792114 381.862732,1225.088135 378.969116,1203.864990 
	C386.259613,1202.852295 393.243011,1201.882202 400.820068,1200.829712 
	C405.777222,1236.231323 410.697266,1271.367798 415.634521,1306.627197 
	C411.182098,1308.440308 407.719635,1308.385742 403.867157,1305.335449 
	C383.243164,1289.005127 362.404846,1272.945557 341.635010,1256.799561 
	C340.354553,1255.804199 339.026276,1254.870239 336.328156,1252.881592 
	C339.330505,1274.631592 342.138977,1294.976929 345.061554,1316.148926 
	C337.895630,1317.184937 330.812531,1318.208862 323.227905,1319.305298 
	C318.262207,1283.743164 313.374420,1248.739014 308.467834,1213.600220 
	C312.963318,1211.445923 316.474396,1211.789429 320.427002,1214.956299 
	C342.254761,1232.445435 364.302826,1249.659668 386.685181,1267.211914 
	C387.232788,1267.135986 387.370605,1266.816040 387.508423,1266.496094 
z"/>
<path fill="#02214D" opacity="1.000000" stroke="none" 
	d="
M886.404236,1226.659058 
	C883.281799,1204.382568 880.248413,1182.539307 877.148682,1160.218140 
	C883.865662,1159.286011 890.205322,1158.406372 896.948547,1157.470581 
	C897.664612,1161.507935 898.292786,1165.049316 899.015015,1169.121216 
	C899.759644,1168.289551 900.282471,1167.909546 900.532959,1167.396484 
	C910.605103,1146.761719 939.539062,1147.880981 952.412537,1162.269409 
	C959.379333,1170.056152 963.392334,1179.178223 963.762146,1189.336670 
	C964.047363,1197.173218 963.808533,1205.588745 961.269592,1212.862671 
	C953.810791,1234.232544 930.867676,1242.035400 911.090027,1230.894531 
	C910.127869,1230.352295 909.098572,1229.929443 907.293579,1229.064087 
	C909.416260,1244.578857 911.436707,1259.346680 913.542725,1274.740112 
	C906.984436,1275.672241 900.664307,1276.570679 893.564453,1277.579834 
	C891.165833,1260.453979 888.829590,1243.773071 886.404236,1226.659058 
M914.217102,1174.320679 
	C904.039307,1180.416504 901.509949,1187.725342 903.153992,1201.764404 
	C903.905579,1208.182495 906.508179,1211.937256 912.253052,1214.534668 
	C921.814270,1218.857666 931.408203,1217.667725 937.451599,1210.791504 
	C944.354065,1202.937866 945.181519,1189.672852 939.310791,1180.984741 
	C933.997131,1173.120972 925.267822,1170.622192 914.217102,1174.320679 
z"/>
<path fill="#02214D" opacity="1.000000" stroke="none" 
	d="
M1005.151855,1147.162354 
	C1015.309387,1134.106323 1040.024292,1135.233276 1051.246582,1146.858765 
	C1059.639893,1155.553589 1064.166138,1165.799805 1063.927734,1177.841431 
	C1063.794189,1184.585815 1063.963501,1191.720703 1061.877197,1197.972534 
	C1054.472656,1220.161499 1031.036377,1228.406738 1010.889282,1216.588745 
	C1010.064697,1216.104858 1009.226929,1215.643433 1007.465454,1214.644043 
	C1008.638550,1223.022583 1009.703796,1230.517944 1010.733582,1238.018188 
	C1011.749023,1245.414062 1012.728577,1252.814819 1013.796387,1260.752441 
	C1007.238220,1261.678711 1000.902954,1262.573364 993.837280,1263.571167 
	C988.325562,1224.347046 982.879150,1185.587036 977.350220,1146.239868 
	C983.438843,1145.398071 989.130859,1144.466919 994.860474,1143.963257 
	C995.796265,1143.881104 997.478577,1145.519043 997.806458,1146.653564 
	C998.573120,1149.306641 998.726562,1152.137085 999.212585,1155.473877 
	C1001.339233,1152.474243 1003.127991,1149.951050 1005.151855,1147.162354 
M1022.605896,1159.000610 
	C1019.575073,1159.626831 1016.210999,1159.614502 1013.572266,1160.991821 
	C1003.232544,1166.388916 998.648865,1185.884277 1005.140320,1195.579590 
	C1005.320435,1195.848511 1005.568909,1196.084351 1005.822937,1196.289429 
	C1020.408997,1208.067993 1037.574341,1204.400635 1042.330688,1188.050903 
	C1043.186523,1185.108765 1042.941040,1181.811646 1042.988403,1178.675293 
	C1043.162720,1167.102173 1035.083496,1158.982056 1022.605896,1159.000610 
z"/>
<path fill="#02214D" opacity="1.000000" stroke="none" 
	d="
M591.479858,1222.480713 
	C595.542664,1230.131714 599.410339,1237.468140 603.278076,1244.804565 
	C603.656433,1244.799072 604.034851,1244.793457 604.413208,1244.787964 
	C605.587708,1237.916870 606.778503,1231.048462 607.932434,1224.174072 
	C609.254517,1216.297852 610.474487,1208.403198 611.920227,1200.550049 
	C612.143616,1199.336670 613.193970,1197.474487 614.104675,1197.317139 
	C620.451233,1196.220215 626.861755,1195.493774 634.020508,1194.546753 
	C631.631165,1206.607056 629.373047,1217.943604 627.141174,1229.285400 
	C624.250305,1243.975220 621.285889,1258.651978 618.575806,1273.375366 
	C617.983093,1276.595581 616.911804,1278.096680 613.419678,1278.611328 
	C603.242676,1280.110962 603.273132,1280.305542 598.466125,1271.193359 
	C591.649048,1258.270630 584.829224,1245.349487 577.331543,1231.140991 
	C575.042908,1241.892212 573.017883,1251.330566 571.028320,1260.776489 
	C569.588440,1267.612549 568.090454,1274.439087 566.831787,1281.309082 
	C566.301025,1284.205688 564.892456,1285.401978 562.002747,1285.828735 
	C551.376038,1287.398193 551.391052,1287.485474 546.475647,1277.829712 
	C536.135986,1257.518555 525.791138,1237.210083 515.458496,1216.895386 
	C514.642761,1215.291748 513.905457,1213.648071 512.860596,1211.453735 
	C519.623352,1210.520752 525.920715,1209.439087 532.263550,1208.960571 
	C533.500916,1208.867065 535.449524,1210.855957 536.164062,1212.325073 
	C542.557007,1225.468384 548.746887,1238.710571 555.633850,1253.271118 
	C557.928223,1242.721802 559.952393,1233.477539 561.945312,1224.226685 
	C563.101318,1218.860718 564.345398,1213.507812 565.281372,1208.102539 
	C565.808594,1205.057739 567.109741,1203.452515 570.328369,1203.252808 
	C573.632263,1203.047607 576.911987,1202.452515 580.654419,1201.969849 
	C584.197327,1208.700928 587.741028,1215.433594 591.479858,1222.480713 
z"/>
<path fill="#02214D" opacity="1.000000" stroke="none" 
	d="
M797.871094,1149.808594 
	C798.331360,1144.954834 801.031494,1143.566040 805.200806,1143.032349 
	C809.217102,1142.518433 811.399292,1143.665161 813.599304,1147.121582 
	C832.639221,1177.034790 851.904053,1206.804932 871.098633,1236.619751 
	C872.078430,1238.141602 873.028381,1239.682617 874.478455,1241.987549 
	C866.060120,1243.130493 858.258240,1244.294556 850.420776,1245.122437 
	C849.431458,1245.226929 847.916138,1243.778687 847.226746,1242.683350 
	C844.657776,1238.601196 842.221130,1234.425049 839.957581,1230.165771 
	C838.689636,1227.779785 837.299316,1226.979858 834.438354,1227.434814 
	C823.427856,1229.185669 812.377258,1230.717773 801.306580,1232.037720 
	C797.676270,1232.470581 795.801575,1233.750000 794.986938,1237.503906 
	C793.802185,1242.963013 793.444153,1249.964355 789.897217,1253.156250 
	C786.501099,1256.212646 779.485352,1255.258545 774.056641,1256.040161 
	C771.462769,1256.413574 768.859863,1256.724121 765.336304,1257.183838 
	C776.298767,1221.028076 787.036560,1185.613525 797.871094,1149.808594 
M812.116150,1182.461060 
	C811.569031,1181.719604 811.021912,1180.978149 810.023254,1179.625000 
	C807.326477,1190.073730 804.793152,1199.846924 802.296997,1209.629395 
	C802.062378,1210.548584 802.061340,1211.527466 801.882996,1213.077148 
	C810.479126,1211.894897 818.711853,1210.762695 827.877747,1209.502075 
	C822.446960,1200.169189 817.471741,1191.619263 812.116150,1182.461060 
z"/>
<path fill="#02214D" opacity="1.000000" stroke="none" 
	d="
M467.309631,1215.905151 
	C473.078888,1216.115967 478.628632,1215.402466 483.642181,1216.723755 
	C499.301636,1220.850464 506.774841,1232.518433 509.855255,1247.583130 
	C510.549805,1250.979858 510.801117,1254.467285 511.342041,1258.560303 
	C492.178925,1261.267700 473.362183,1263.926270 454.527069,1266.587402 
	C458.470276,1285.355713 481.429321,1285.912842 505.249603,1267.513672 
	C506.025024,1273.626221 506.833160,1279.228516 507.347198,1284.857544 
	C507.426544,1285.726440 506.311737,1286.894897 505.485443,1287.627319 
	C492.832703,1298.843506 478.290527,1302.969727 461.955322,1297.967651 
	C445.943970,1293.064819 436.701202,1281.979004 432.899872,1265.525635 
	C428.187988,1245.130859 443.222687,1218.341675 467.309631,1215.905151 
M487.698486,1240.963135 
	C478.063965,1228.703003 460.035645,1230.987427 454.083374,1245.310913 
	C453.208923,1247.415039 453.139923,1249.854004 452.698273,1252.138062 
	C454.875824,1252.074341 457.079590,1252.204590 459.226471,1251.913940 
	C469.400452,1250.537109 479.558899,1249.045532 490.363098,1247.503418 
	C489.464111,1245.214844 488.759155,1243.420288 487.698486,1240.963135 
z"/>
<path fill="#02214D" opacity="1.000000" stroke="none" 
	d="
M690.709595,1204.959351 
	C684.895203,1205.011475 679.370911,1204.501953 674.130798,1205.493896 
	C670.343750,1206.210815 667.481995,1209.371582 667.841675,1213.964966 
	C668.197632,1218.512085 671.667175,1219.958984 675.340149,1220.790649 
	C680.689880,1222.002075 686.113464,1222.884277 691.499084,1223.940186 
	C710.197693,1227.606934 712.265503,1248.511475 703.440918,1259.151245 
	C693.900391,1270.654175 681.032532,1273.078125 666.948792,1271.582275 
	C666.475037,1271.531982 666.037537,1271.204346 665.563110,1271.087036 
	C651.900879,1267.708496 650.054504,1265.050537 651.238586,1250.557983 
	C656.355774,1251.826782 661.517456,1252.993896 666.613342,1254.399780 
	C672.394592,1255.994873 677.922119,1254.846069 682.798279,1252.041504 
	C684.916016,1250.823364 686.919678,1247.384399 686.851624,1245.015259 
	C686.795166,1243.048828 683.954895,1240.155518 681.773254,1239.450317 
	C675.788025,1237.515625 669.548523,1236.222900 663.323303,1235.203247 
	C645.528687,1232.288696 641.721191,1209.520020 650.653198,1198.841675 
	C657.007629,1191.244873 665.115234,1187.020020 674.966675,1187.102417 
	C681.367981,1187.156006 687.812378,1188.050537 694.119324,1189.210571 
	C695.705017,1189.502197 697.575623,1192.080200 698.029968,1193.924194 
	C699.130005,1198.388306 699.472656,1203.038818 700.178467,1208.022705 
	C696.765869,1206.899170 693.943604,1205.969971 690.709595,1204.959351 
z"/>
<path fill="#FCFEFE" opacity="1.000000" stroke="none" 
	d="
M1013.357910,1542.286865 
	C1006.874451,1543.158569 1002.355042,1540.501099 999.546143,1536.627441 
	C994.739014,1539.792969 990.492981,1543.598267 985.521057,1545.604492 
	C979.449707,1548.054443 975.832397,1546.047729 971.351379,1539.789185 
	C970.147766,1541.422119 969.057922,1542.975952 967.891357,1544.469727 
	C963.586975,1549.981689 957.889832,1552.269653 951.108521,1550.793945 
	C944.834106,1549.428467 941.731750,1544.659058 940.554749,1538.737183 
	C937.976746,1525.766235 939.730713,1513.495728 947.585632,1502.566895 
	C953.210693,1494.740479 962.297852,1492.024780 971.284912,1495.716187 
	C971.547424,1491.754395 971.889465,1488.070679 972.018311,1484.379517 
	C972.460754,1471.709595 973.880554,1470.259888 987.966370,1469.178345 
	C987.966370,1471.288574 988.060852,1473.357056 987.951477,1475.414673 
	C987.103088,1491.381958 986.215088,1507.347290 985.340149,1523.313232 
	C985.249023,1524.976562 985.049683,1526.643555 985.099304,1528.302856 
	C985.181519,1531.056396 984.569153,1534.488403 988.556885,1534.963379 
	C992.723389,1535.459839 995.105835,1532.880371 995.994995,1529.091553 
	C996.400696,1527.362793 996.087402,1525.452393 996.019043,1523.627441 
	C995.615845,1512.863403 997.630493,1502.786011 1004.010498,1493.808960 
	C1009.430725,1486.182129 1021.671509,1482.307251 1026.950806,1486.833008 
	C1031.290161,1481.425171 1037.589233,1483.555176 1043.583740,1481.691162 
	C1043.202515,1489.998535 1042.854492,1497.436401 1042.521729,1504.874878 
	C1042.283813,1510.199219 1041.745239,1515.539917 1042.001099,1520.841431 
	C1042.100098,1522.893311 1044.037476,1526.525146 1045.105225,1526.513428 
	C1047.315308,1526.489258 1050.387573,1525.037720 1051.493042,1523.202148 
	C1053.124878,1520.492554 1053.843384,1516.972778 1054.082520,1513.733887 
	C1054.767212,1504.463501 1055.014282,1495.160889 1055.431885,1485.907227 
	C1053.111328,1484.027100 1048.971069,1482.512573 1054.743652,1479.619629 
	C1055.714478,1479.133057 1056.028076,1476.790405 1056.161011,1475.263428 
	C1057.135132,1464.067505 1057.094116,1464.056641 1068.045410,1461.033203 
	C1069.283569,1460.691284 1070.560547,1460.489502 1072.108887,1460.161255 
	C1072.108887,1465.789917 1072.108887,1471.064209 1072.108887,1476.596558 
	C1073.932129,1476.596558 1075.531494,1476.596558 1078.999390,1476.596558 
	C1077.331055,1478.707275 1076.523193,1480.741699 1075.473999,1480.874878 
	C1071.666504,1481.358398 1071.137573,1483.592773 1071.035156,1486.781738 
	C1070.746460,1495.770752 1070.087158,1504.748901 1069.876831,1513.738525 
	C1069.803467,1516.873901 1068.128174,1521.362549 1073.660400,1521.883789 
	C1077.980469,1522.290894 1081.987183,1517.335327 1081.888916,1512.444946 
	C1081.798950,1507.964478 1081.644043,1503.444824 1082.096436,1499.001465 
	C1083.508545,1485.133423 1091.301392,1474.582275 1102.080078,1471.761597 
	C1106.816040,1470.522095 1111.895508,1469.558716 1115.702271,1473.632568 
	C1119.446411,1477.639526 1119.416626,1482.767456 1117.961060,1487.784790 
	C1115.497437,1496.276489 1109.560669,1501.642578 1101.578735,1504.748291 
	C1098.621826,1505.898804 1097.103882,1507.189819 1097.862793,1510.530518 
	C1098.651978,1514.004883 1099.113770,1517.544678 1103.607178,1518.237549 
	C1112.563721,1519.618652 1123.022949,1510.712769 1122.821167,1501.746094 
	C1122.585815,1491.291138 1124.676270,1481.521973 1131.202515,1473.086548 
	C1137.109253,1465.451782 1146.204834,1462.958618 1154.594849,1466.854248 
	C1155.007935,1460.465088 1155.595093,1454.248291 1155.736572,1448.021484 
	C1155.810425,1444.772217 1157.047363,1443.250122 1160.156494,1442.565308 
	C1163.664429,1441.792725 1167.077271,1440.588135 1171.206787,1439.372681 
	C1171.206787,1441.556641 1171.263550,1442.842773 1171.198242,1444.122559 
	C1170.279907,1462.088013 1169.383545,1480.054565 1168.394653,1498.016113 
	C1168.009766,1505.006226 1169.142822,1506.259399 1176.094482,1505.860840 
	C1177.050537,1510.501709 1175.072388,1514.387207 1170.606079,1516.640991 
	C1164.813110,1519.564331 1159.726929,1518.217773 1153.951172,1511.893677 
	C1150.153931,1517.044434 1146.020386,1521.716431 1138.991089,1522.168213 
	C1131.874756,1522.625610 1127.511353,1518.855957 1124.962769,1514.178101 
	C1118.518433,1518.654053 1112.678223,1523.927246 1105.862915,1527.117554 
	C1098.348877,1530.635132 1090.474976,1529.845337 1085.185181,1523.156250 
	C1080.234497,1526.519531 1075.750244,1530.506226 1070.530518,1532.866943 
	C1064.421021,1535.630127 1060.426147,1533.684937 1056.056152,1528.312988 
	C1051.415527,1531.456909 1047.174561,1535.259399 1042.220215,1537.443115 
	C1036.480713,1539.972778 1032.887817,1537.971924 1028.739136,1532.627075 
	C1023.659119,1535.876221 1018.701538,1539.046997 1013.357910,1542.286865 
M958.706116,1507.388306 
	C955.468689,1515.609619 954.309631,1524.061035 955.867981,1532.819580 
	C956.409363,1535.862427 957.166199,1539.588745 960.757629,1539.227417 
	C963.390137,1538.962402 966.112915,1536.570557 968.144043,1534.490479 
	C969.351074,1533.254272 969.615967,1530.807983 969.751465,1528.867188 
	C970.272888,1521.401855 970.761902,1513.922363 970.824707,1506.444580 
	C970.841431,1504.459106 969.645630,1501.111450 968.382324,1500.781860 
	C966.453979,1500.278687 963.788452,1501.522827 961.810974,1502.671021 
	C960.528748,1503.415405 959.914246,1505.309814 958.706116,1507.388306 
M1016.877502,1495.471924 
	C1011.796753,1504.059326 1011.296631,1513.476807 1012.181030,1523.039062 
	C1012.497437,1526.460571 1013.106445,1530.541626 1017.732605,1530.715088 
	C1022.007080,1530.875244 1024.114380,1527.650757 1025.464966,1524.032349 
	C1025.864502,1522.961670 1026.042725,1521.771240 1026.116699,1520.622437 
	C1026.630005,1512.651489 1027.190430,1504.681396 1027.527466,1496.702271 
	C1027.726318,1491.995361 1024.388184,1490.009521 1020.288025,1492.271729 
	C1019.158813,1492.894897 1018.287415,1493.985352 1016.877502,1495.471924 
M1152.943848,1500.031494 
	C1153.330566,1492.249756 1153.860474,1484.470337 1153.991455,1476.684204 
	C1154.019897,1474.991943 1152.994751,1472.271973 1151.782471,1471.816650 
	C1150.155273,1471.205933 1147.417358,1471.751465 1145.987915,1472.866577 
	C1144.144531,1474.304443 1142.763916,1476.643188 1141.814087,1478.863403 
	C1138.468262,1486.683838 1137.988647,1494.927612 1139.029541,1503.271484 
	C1139.422241,1506.419800 1139.987305,1509.875732 1143.973755,1510.380737 
	C1148.115601,1510.905396 1150.266479,1508.022705 1151.815674,1504.719849 
	C1152.368774,1503.540527 1152.526733,1502.175903 1152.943848,1500.031494 
M1110.210693,1482.613037 
	C1109.242676,1480.724731 1108.274658,1478.836426 1107.306519,1476.948242 
	C1105.528198,1478.247681 1102.779053,1479.190430 1102.146606,1480.911011 
	C1099.907227,1487.003174 1098.391479,1493.361206 1096.406616,1500.299072 
	C1104.997192,1498.697144 1109.474609,1492.640625 1110.210693,1482.613037 
z"/>
<path fill="#FCFEFE" opacity="1.000000" stroke="none" 
	d="
M639.867432,1600.866821 
	C636.421021,1600.267944 632.112610,1604.935425 630.737976,1598.534424 
	C617.513123,1607.361938 612.650696,1607.196167 606.239380,1597.533569 
	C605.160828,1599.108154 604.210999,1600.564209 603.191956,1601.970215 
	C599.225159,1607.443481 592.171631,1610.272339 586.585388,1608.658569 
	C581.456604,1607.176880 578.378662,1602.303589 578.152344,1594.710571 
	C577.970642,1588.613403 578.115540,1582.506592 578.115540,1576.199829 
	C573.653625,1577.164429 570.564331,1578.548218 570.276978,1584.646729 
	C569.979797,1590.952393 568.265076,1597.517944 565.688599,1603.310547 
	C562.118530,1611.336914 555.051941,1616.018677 546.148438,1615.618408 
	C541.378845,1615.404053 536.717102,1612.791382 531.736938,1611.173218 
	C528.902039,1613.552734 524.866455,1616.691772 521.170654,1620.189819 
	C520.028198,1621.270996 519.495544,1623.279663 519.233887,1624.949951 
	C518.669128,1628.555298 518.797302,1632.288086 518.039368,1635.840332 
	C516.205444,1644.436157 509.441528,1649.980347 500.687988,1650.378296 
	C496.270630,1650.579224 492.241119,1649.481812 490.115204,1645.222900 
	C487.853699,1640.692139 487.981323,1635.921021 491.506561,1632.159302 
	C494.310181,1629.167725 498.015289,1627.040039 501.134674,1624.316406 
	C502.517365,1623.109009 503.442505,1621.377686 504.575439,1619.884277 
	C504.176819,1619.527100 503.778198,1619.169800 503.379578,1618.812622 
	C502.333771,1619.678711 501.322144,1620.590454 500.236206,1621.402832 
	C495.857300,1624.679199 491.056305,1626.250244 485.728760,1624.188721 
	C480.712067,1622.247559 478.841614,1617.805542 478.744202,1612.985107 
	C478.579620,1604.843628 479.028412,1596.687378 479.309235,1588.540405 
	C479.469879,1583.879883 479.655945,1579.209106 480.161957,1574.578979 
	C480.308319,1573.239868 481.385071,1571.165405 482.409363,1570.906250 
	C486.525909,1569.864624 490.789032,1569.402588 495.766785,1568.602783 
	C495.313568,1577.900879 494.887360,1586.324219 494.498718,1594.749390 
	C494.291504,1599.241211 493.885590,1603.749512 494.115936,1608.222290 
	C494.200439,1609.862793 495.596375,1612.412354 496.873230,1612.753418 
	C498.289246,1613.131714 501.112549,1611.909180 501.804199,1610.588135 
	C503.372467,1607.593018 504.607239,1604.163818 504.910400,1600.814453 
	C505.795990,1591.031250 506.345215,1581.206055 506.633698,1571.385864 
	C506.748322,1567.484009 508.328247,1566.108765 511.950531,1565.914795 
	C515.061096,1565.748169 518.149292,1565.162842 522.281616,1564.629150 
	C521.454590,1581.642090 520.659546,1597.997314 519.857239,1614.503296 
	C526.375061,1612.789673 530.306213,1606.061035 529.671448,1598.947510 
	C528.696899,1588.025635 530.560669,1577.731445 536.840088,1568.469727 
	C541.062134,1562.242188 547.062195,1559.049927 554.334534,1558.139038 
	C561.582031,1557.231323 566.192993,1560.850098 568.969849,1568.871704 
	C569.506226,1570.421021 571.714661,1572.921143 572.125977,1572.733643 
	C574.645630,1571.584106 577.772705,1570.271484 578.950439,1568.076050 
	C580.248535,1565.656128 579.954712,1562.215210 579.827881,1559.241577 
	C579.680298,1555.781860 581.261108,1554.517700 584.408447,1554.209717 
	C587.847534,1553.873413 591.264587,1553.312012 595.451782,1552.745850 
	C595.122559,1560.108032 594.812378,1566.876709 594.519470,1573.646240 
	C594.260193,1579.637451 593.801575,1585.633301 593.904297,1591.618896 
	C593.935425,1593.430298 595.545044,1595.214478 596.431580,1597.010986 
	C598.478882,1595.889771 601.870483,1595.156738 602.326782,1593.576294 
	C603.821472,1588.398804 604.529114,1582.938843 605.019409,1577.540039 
	C605.724243,1569.776245 605.838745,1561.958740 606.540222,1554.194458 
	C606.664246,1552.822266 608.213074,1550.781738 609.467529,1550.457764 
	C613.291443,1549.470215 617.293091,1549.170532 622.128540,1548.472778 
	C621.661560,1557.583008 621.218750,1566.152954 620.784363,1574.723267 
	C620.558167,1579.186279 620.148499,1583.651611 620.183655,1588.113037 
	C620.219910,1592.714478 624.130188,1594.821411 627.561096,1591.795410 
	C629.712097,1589.898315 631.568054,1586.654175 631.857910,1583.839478 
	C632.949219,1573.246826 633.554321,1562.588989 633.892578,1551.941284 
	C634.022949,1547.839233 635.122253,1545.803589 639.445312,1545.634033 
	C642.573914,1545.511353 645.676086,1544.716187 649.108887,1544.170288 
	C649.516479,1545.860229 649.878418,1547.361328 650.218445,1548.771240 
	C653.490723,1546.675903 656.496033,1544.325073 659.857178,1542.718750 
	C663.259705,1541.092773 667.093262,1542.041870 668.409180,1545.453369 
	C669.513977,1548.317383 669.589905,1552.356079 668.399353,1555.137817 
	C666.780884,1558.919556 661.603638,1558.945679 659.265198,1556.146606 
	C658.075562,1554.722656 655.313660,1552.516846 655.052002,1552.742188 
	C652.808899,1554.674194 649.869080,1556.820679 649.258911,1559.404053 
	C648.127075,1564.195923 648.407776,1569.324829 648.136597,1574.315430 
	C647.802063,1580.469971 647.088562,1586.642090 647.316406,1592.777588 
	C647.515625,1598.143799 645.845642,1600.936401 639.867432,1600.866821 
M561.309875,1586.114502 
	C561.133972,1584.352295 561.630737,1581.903076 560.660095,1580.952637 
	C557.311157,1577.674316 557.337402,1574.596313 559.382874,1570.677490 
	C559.981262,1569.531006 559.257812,1566.811768 558.205872,1565.936890 
	C557.167603,1565.073242 554.604431,1565.015503 553.331299,1565.722534 
	C551.740112,1566.606323 550.382629,1568.456299 549.619324,1570.194336 
	C545.520203,1579.528198 543.995911,1589.291626 546.242126,1599.317383 
	C546.706482,1601.389893 548.897339,1604.593628 550.297729,1604.596313 
	C552.617859,1604.600708 556.118408,1602.985474 557.026978,1601.062622 
	C559.101562,1596.671875 559.908264,1591.681763 561.309875,1586.114502 
M495.250549,1635.705078 
	C494.386902,1638.238037 493.889008,1641.259766 497.172028,1641.679077 
	C498.729187,1641.878052 501.356293,1639.518188 502.241791,1637.704102 
	C503.381042,1635.370483 503.257935,1632.420532 503.678589,1629.736084 
	C503.214172,1629.465820 502.749756,1629.195557 502.285370,1628.925293 
	C500.061401,1630.984009 497.837433,1633.042603 495.250549,1635.705078 
z"/>
<path fill="#FCFEFE" opacity="1.000000" stroke="none" 
	d="
M748.784424,1534.548218 
	C752.079041,1546.379761 746.145508,1557.704102 733.570374,1562.594482 
	C728.925415,1564.400757 728.322021,1566.723389 729.453674,1570.819336 
	C730.663147,1575.197021 733.183167,1577.081055 737.859070,1576.647461 
	C746.131775,1575.880371 756.015442,1565.406250 756.037537,1556.872559 
	C756.076233,1541.902222 757.468079,1526.939697 758.005432,1511.963501 
	C758.142700,1508.138306 759.437744,1506.198853 763.177917,1505.438965 
	C766.539185,1504.755981 769.801147,1503.584717 773.995300,1502.372070 
	C773.477905,1512.729492 773.011841,1522.144287 772.536194,1531.558472 
	C772.006836,1542.035889 771.325562,1552.509155 771.062744,1562.993042 
	C771.013794,1564.945679 772.328979,1568.337524 773.546631,1568.600342 
	C775.571289,1569.037354 778.975647,1568.162476 780.093628,1566.611206 
	C782.116516,1563.804199 783.749451,1560.162109 784.026123,1556.745605 
	C785.289246,1541.148560 785.809326,1525.491821 787.028442,1509.890381 
	C787.781677,1500.251831 794.179199,1493.771240 803.310547,1492.283081 
	C810.470154,1491.116089 817.100403,1495.848633 817.928894,1502.610962 
	C818.290527,1505.562744 817.399536,1507.151855 814.727905,1505.887207 
	C812.440552,1504.393677 810.018921,1501.499878 807.894348,1501.703613 
	C803.702515,1502.105591 802.490784,1506.201294 802.176880,1510.007446 
	C801.921143,1513.108032 802.125000,1516.246582 802.125000,1519.567017 
	C804.563721,1519.421631 806.652161,1519.296997 808.740601,1519.172363 
	C809.063965,1519.565186 809.387268,1519.957886 809.710632,1520.350708 
	C808.639038,1521.475952 807.594055,1523.533936 806.491272,1523.565552 
	C801.571533,1523.705688 801.160278,1526.590942 800.979980,1530.521606 
	C800.117676,1549.318481 799.084229,1568.108521 797.979675,1586.893066 
	C797.387451,1596.965332 792.293701,1603.385132 783.552246,1605.571655 
	C777.265869,1607.144165 770.985229,1604.731445 768.421814,1599.759277 
	C765.593140,1594.272583 767.021729,1587.975342 772.402466,1583.711914 
	C774.861206,1581.763672 777.818665,1580.456787 780.390747,1578.634277 
	C781.607544,1577.772339 782.450195,1576.382324 783.959473,1574.666260 
	C777.748291,1577.075073 772.792236,1579.944702 767.508240,1580.808472 
	C760.758362,1581.912231 757.390015,1577.004272 755.551025,1570.101807 
	C750.165283,1578.242065 743.945312,1584.209595 734.783325,1586.282593 
	C724.830261,1588.534790 720.416626,1586.571777 712.590759,1575.150146 
	C709.358093,1578.868286 706.331726,1582.394287 703.255981,1585.876709 
	C698.435547,1591.334351 692.166016,1593.728638 685.077881,1593.943726 
	C679.319397,1594.118408 674.655029,1591.812500 671.927368,1586.522705 
	C669.291565,1581.411255 669.998657,1576.737549 673.604126,1572.126587 
	C675.272400,1569.993042 676.132019,1567.102051 676.909729,1564.424194 
	C678.393860,1559.314453 679.747131,1554.150146 680.814636,1548.938965 
	C683.438538,1536.130493 684.523071,1535.070801 698.411255,1533.524170 
	C701.467285,1547.050537 704.535095,1560.629272 707.671509,1574.511230 
	C711.252258,1573.143188 713.118164,1570.952026 712.914734,1566.795532 
	C712.440369,1557.102417 714.258301,1547.927490 719.758972,1539.671997 
	C724.276123,1532.892578 730.745544,1529.695801 738.631531,1529.078735 
	C742.918152,1528.743286 746.543396,1530.040283 748.784424,1534.548218 
M687.563293,1584.237061 
	C688.896851,1581.716553 691.635742,1578.997803 691.313110,1576.710815 
	C690.114502,1568.215698 687.908447,1559.862671 686.080750,1551.456299 
	C683.637390,1557.229370 682.050537,1562.801514 680.587402,1568.406006 
	C680.367004,1569.250366 680.468201,1570.373901 680.856140,1571.151001 
	C683.913452,1577.275146 683.303345,1578.709351 676.572510,1580.747437 
	C678.405396,1586.207764 680.254761,1586.902710 687.563293,1584.237061 
M730.958801,1544.615845 
	C730.117615,1549.093262 729.276428,1553.570801 728.356567,1558.467163 
	C737.651123,1556.420044 743.965637,1545.124268 741.036621,1537.567627 
	C739.849792,1534.505737 737.596558,1534.121338 735.682007,1536.243408 
	C733.745056,1538.390625 732.633057,1541.282104 730.958801,1544.615845 
M782.629333,1588.138184 
	C782.724487,1586.094116 782.819641,1584.050049 782.914795,1582.006104 
	C782.343933,1581.686157 781.773071,1581.366333 781.202271,1581.046387 
	C778.516968,1584.117188 775.389160,1586.932617 773.388977,1590.398682 
	C772.698059,1591.596069 774.812134,1594.412231 775.644958,1596.489014 
	C777.587341,1595.413208 779.792053,1594.619873 781.370667,1593.152710 
	C782.274048,1592.313354 782.159241,1590.378540 782.629333,1588.138184 
z"/>
<path fill="#FCFEFE" opacity="1.000000" stroke="none" 
	d="
M405.840179,1597.716309 
	C406.103210,1592.252197 406.402313,1587.262573 406.560364,1582.268555 
	C406.645996,1579.562012 407.504852,1577.989380 410.557007,1577.746216 
	C414.160675,1577.458984 417.724609,1576.673950 421.644196,1576.051025 
	C421.903656,1578.392578 422.116486,1580.313477 422.343628,1582.363403 
	C425.708862,1580.872559 428.857300,1578.971802 432.269806,1578.069214 
	C439.854431,1576.062866 445.674225,1579.077148 447.944153,1586.536743 
	C451.430511,1597.993774 451.553223,1609.603516 446.737579,1620.764282 
	C441.748047,1632.328125 432.072998,1636.870483 419.373138,1633.755615 
	C418.938324,1640.720459 418.276245,1647.597168 418.173309,1654.482178 
	C418.118469,1658.150635 417.125122,1660.353027 413.429016,1661.453003 
	C409.962677,1662.484741 406.668854,1664.096191 402.276306,1665.864258 
	C402.903931,1652.923828 403.493530,1640.767212 404.083160,1628.610596 
	C398.446198,1634.826172 392.331482,1639.935181 384.106750,1641.809937 
	C374.416046,1644.018677 369.101013,1641.840332 363.315247,1633.060791 
	C362.141052,1634.545288 361.100281,1635.877930 360.041992,1637.196411 
	C353.978302,1644.751221 346.359619,1649.260986 336.426636,1649.154175 
	C329.123505,1649.075562 324.026245,1645.776489 322.339325,1638.782349 
	C319.035706,1625.085449 320.421234,1611.932739 329.029663,1600.239868 
	C333.494843,1594.174927 339.962738,1591.640015 347.252075,1591.301392 
	C353.561646,1591.008057 357.261627,1594.707275 357.910645,1601.382324 
	C358.794739,1610.474976 352.616180,1619.868896 342.680664,1624.537598 
	C336.548859,1627.418823 335.825378,1628.908691 337.914948,1634.352905 
	C339.591553,1638.720947 342.445374,1639.826050 348.175446,1638.326172 
	C356.972870,1636.023315 361.934296,1629.548950 361.996613,1620.328491 
	C362.057465,1611.322998 363.890961,1602.822510 369.000153,1595.203979 
	C373.520538,1588.463501 379.887390,1585.099365 387.876312,1584.685913 
	C394.786346,1584.328125 398.525299,1587.679688 399.049957,1594.532471 
	C399.822540,1604.623657 393.593018,1613.871826 382.594940,1618.239990 
	C379.163635,1619.602905 377.180267,1620.928833 378.371368,1625.039185 
	C379.517487,1628.994629 380.765717,1632.250244 385.832489,1632.129150 
	C394.980957,1631.910645 404.594513,1622.731934 404.977051,1613.656982 
	C405.194550,1608.498413 405.533325,1603.344849 405.840179,1597.716309 
M426.428894,1625.266113 
	C427.948212,1624.015015 430.008087,1623.064697 430.898865,1621.463867 
	C436.486023,1611.421997 436.538025,1600.745728 433.326538,1590.057007 
	C432.131989,1586.081177 427.808380,1585.200928 424.928833,1588.223022 
	C423.118286,1590.123047 421.537933,1592.953003 421.293274,1595.503906 
	C420.499664,1603.777222 420.458496,1612.119751 419.948578,1620.424561 
	C419.679657,1624.803955 421.105347,1626.859253 426.428894,1625.266113 
M390.899811,1597.468018 
	C389.966431,1595.185181 389.033051,1592.902466 388.099609,1590.619629 
	C385.978699,1592.407837 382.813751,1593.795654 381.944000,1596.063599 
	C379.820831,1601.600342 378.759979,1607.544312 377.271484,1613.324219 
	C377.899292,1613.572510 378.527069,1613.820679 379.154877,1614.068970 
	C386.375519,1611.455688 389.681732,1605.715576 390.899811,1597.468018 
M342.688416,1618.276123 
	C347.759399,1613.621460 350.434967,1607.999390 349.247894,1601.027588 
	C349.027100,1599.730957 347.957336,1597.738037 347.046265,1597.599609 
	C345.719727,1597.397827 343.619934,1598.173340 342.826385,1599.251221 
	C338.176300,1605.567261 336.834534,1612.810547 337.041992,1621.401733 
	C339.298859,1620.216553 340.708862,1619.476074 342.688416,1618.276123 
z"/>
<path fill="#FCFEFE" opacity="1.000000" stroke="none" 
	d="
M891.778992,1587.528809 
	C887.569763,1589.272339 888.243896,1586.515381 888.357971,1584.391846 
	C888.839661,1575.423340 889.352844,1566.456543 889.842346,1557.708008 
	C885.254944,1559.832764 880.938599,1562.554321 876.230591,1563.826050 
	C870.623413,1565.340698 866.805176,1561.943848 864.455811,1556.536499 
	C862.598633,1559.045776 861.243408,1561.350464 859.438354,1563.221313 
	C855.177795,1567.636963 849.855164,1569.421021 843.936707,1567.604492 
	C838.324646,1565.882202 836.322876,1560.816040 836.382812,1555.752930 
	C836.538574,1542.607422 837.398865,1529.468628 838.117737,1516.334961 
	C838.162415,1515.518799 839.303223,1514.248901 840.121643,1514.075439 
	C844.295959,1513.190918 848.531982,1512.597656 853.459229,1511.785034 
	C853.122742,1519.297363 852.806458,1526.073608 852.519470,1532.850830 
	C852.258850,1539.007812 851.839844,1545.168213 851.912354,1551.322266 
	C851.932129,1552.999878 853.338562,1555.938477 854.345947,1556.044556 
	C856.102478,1556.229614 859.022949,1555.143921 859.710938,1553.737427 
	C861.341553,1550.404175 862.542542,1546.620605 862.854675,1542.929321 
	C863.653992,1533.474243 863.970459,1523.973267 864.272766,1514.484131 
	C864.375488,1511.259399 865.552979,1509.588379 868.827393,1509.275024 
	C872.278137,1508.944824 875.706116,1508.376831 879.916748,1507.808472 
	C879.916748,1510.224487 880.005188,1512.153931 879.902039,1514.073242 
	C879.356628,1524.219604 878.687988,1534.360229 878.233948,1544.510498 
	C878.106689,1547.357422 877.265320,1551.064087 881.311035,1551.952759 
	C885.453003,1552.862671 888.056091,1550.217896 889.111877,1546.564209 
	C890.116028,1543.089600 890.684631,1539.424194 890.929749,1535.807739 
	C891.605652,1525.837280 892.122437,1515.852417 892.464905,1505.865112 
	C892.585388,1502.351318 893.916870,1500.812988 897.443420,1500.586670 
	C900.726135,1500.376099 903.974365,1499.628174 907.632507,1499.055054 
	C907.887024,1501.316895 908.102905,1503.234985 908.383301,1505.726196 
	C910.083618,1504.725830 911.550720,1503.830200 913.047424,1502.987183 
	C923.187500,1497.276611 932.897766,1500.958130 934.642029,1512.311890 
	C935.931702,1520.706421 936.147400,1529.705444 934.573425,1538.005005 
	C931.663879,1553.347412 921.261902,1559.507080 905.328735,1556.974243 
	C904.918030,1563.621948 904.166931,1570.253052 904.219543,1576.877808 
	C904.254333,1581.263428 902.807617,1583.691406 898.599731,1584.797485 
	C896.363464,1585.385254 894.265076,1586.497803 891.778992,1587.528809 
M921.196228,1527.415894 
	C920.698975,1522.818481 920.740356,1518.076904 919.558350,1513.662842 
	C918.288879,1508.921875 913.560364,1508.047729 910.306152,1511.746216 
	C908.765076,1513.497925 907.466675,1516.024780 907.275757,1518.302612 
	C906.568359,1526.739624 906.285950,1535.216553 906.007996,1543.683838 
	C905.843262,1548.699829 908.485352,1550.477051 912.782593,1547.973755 
	C914.932495,1546.721191 917.199341,1544.568604 917.993103,1542.321533 
	C919.571411,1537.853394 920.167053,1533.038208 921.196228,1527.415894 
z"/>
<path fill="#FCFEFE" opacity="1.000000" stroke="none" 
	d="
M267.800232,1589.892700 
	C261.749939,1598.230225 261.977112,1606.935425 264.985565,1615.836304 
	C259.821228,1617.834351 255.422668,1616.526001 254.074188,1611.745117 
	C253.038635,1608.073853 252.659973,1603.703857 253.619034,1600.075317 
	C257.157104,1586.688965 275.525543,1573.781860 290.390411,1574.256348 
	C289.926544,1584.380249 289.462189,1594.514404 288.997833,1604.648560 
	C289.374329,1604.764893 289.750824,1604.881226 290.127319,1604.997559 
	C292.798523,1599.933716 295.471405,1594.870850 298.140381,1589.806030 
	C300.391602,1585.533936 303.084473,1581.428223 304.779602,1576.945435 
	C307.175537,1570.609131 311.960358,1569.984619 318.808929,1570.230225 
	C310.929962,1582.895508 303.460022,1594.903198 295.410919,1607.841919 
	C297.816803,1607.841919 299.198517,1607.882080 300.577240,1607.835327 
	C309.779388,1607.522827 313.926697,1611.177246 313.938354,1620.440796 
	C313.946686,1627.084351 312.851593,1633.732544 312.921387,1640.371582 
	C312.962097,1644.247559 314.325806,1648.109863 315.334686,1653.188477 
	C312.781830,1653.789307 308.917053,1655.266235 304.984192,1655.477539 
	C300.311920,1655.728516 298.017181,1652.343628 298.125244,1647.997559 
	C298.282196,1641.686401 299.151581,1635.395874 299.427856,1629.083740 
	C299.579102,1625.627197 299.470978,1622.085571 298.870697,1618.689941 
	C298.215454,1614.983643 295.446411,1613.680054 291.766266,1614.049805 
	C287.943054,1614.433960 288.160065,1617.203491 288.025269,1619.920044 
	C287.480621,1630.898193 286.781403,1641.869751 286.357849,1652.852051 
	C286.239014,1655.934082 285.080933,1657.372192 282.064209,1657.682617 
	C278.617249,1658.037354 275.192657,1658.608887 270.715485,1659.231201 
	C271.975647,1634.316528 273.206146,1609.988770 274.436615,1585.661011 
	C274.010040,1585.403198 273.583466,1585.145508 273.156891,1584.887695 
	C271.446869,1586.458740 269.736816,1588.029907 267.800232,1589.892700 
z"/>
<path fill="#FCFEFE" opacity="1.000000" stroke="none" 
	d="
M1192.573975,1487.734863 
	C1190.065796,1488.139526 1187.952881,1488.424561 1185.505127,1488.754639 
	C1185.324463,1487.119141 1185.066650,1485.842773 1185.059937,1484.565063 
	C1184.979248,1469.092529 1185.003540,1453.619141 1184.825439,1438.147827 
	C1184.789185,1434.997437 1185.655884,1433.218994 1188.910767,1432.500610 
	C1192.739624,1431.655640 1196.472290,1430.375122 1200.933594,1429.084717 
	C1199.871094,1438.714966 1198.907227,1447.591919 1197.908325,1456.464966 
	C1196.903931,1465.386963 1195.927490,1474.313232 1194.780273,1483.217163 
	C1194.584595,1484.735718 1193.593018,1486.151855 1192.573975,1487.734863 
z"/>
<path fill="#FCFEFE" opacity="1.000000" stroke="none" 
	d="
M1180.838623,1504.330566 
	C1181.894287,1499.661011 1184.764282,1496.870239 1188.925537,1497.275879 
	C1191.649902,1497.541504 1195.347656,1499.405762 1196.448364,1501.625610 
	C1197.650391,1504.049927 1197.165283,1508.074951 1195.957153,1510.741577 
	C1194.356445,1514.274536 1190.434937,1514.876465 1186.839966,1513.830444 
	C1182.461060,1512.556152 1180.504028,1509.301636 1180.838623,1504.330566 
z"/>
<path fill="#56A1A4" opacity="1.000000" stroke="none" 
	d="
M524.040222,1761.038330 
	C524.135254,1761.009399 524.207886,1760.961182 524.126953,1760.946533 
	C523.973328,1760.980225 524.017822,1761.019043 524.040222,1761.038330 
z"/>
<path fill="#70D0D3" opacity="1.000000" stroke="none" 
	d="
M387.368744,1266.632324 
	C387.370605,1266.816040 387.232788,1267.135986 387.026154,1267.252197 
	C386.957336,1267.048706 387.229034,1266.768677 387.368744,1266.632324 
z"/>
<path fill="#6FCED2" opacity="1.000000" stroke="none" 
	d="
M914.585693,1174.166504 
	C925.267822,1170.622192 933.997131,1173.120972 939.310791,1180.984741 
	C945.181519,1189.672852 944.354065,1202.937866 937.451599,1210.791504 
	C931.408203,1217.667725 921.814270,1218.857666 912.253052,1214.534668 
	C906.508179,1211.937256 903.905579,1208.182495 903.153992,1201.764404 
	C901.509949,1187.725342 904.039307,1180.416504 914.585693,1174.166504 
z"/>
<path fill="#6FCED2" opacity="1.000000" stroke="none" 
	d="
M1023.061157,1159.000610 
	C1035.083496,1158.982056 1043.162720,1167.102173 1042.988403,1178.675293 
	C1042.941040,1181.811646 1043.186523,1185.108765 1042.330688,1188.050903 
	C1037.574341,1204.400635 1020.408997,1208.067993 1005.822937,1196.289429 
	C1005.568909,1196.084351 1005.320435,1195.848511 1005.140320,1195.579590 
	C998.648865,1185.884277 1003.232544,1166.388916 1013.572266,1160.991821 
	C1016.210999,1159.614502 1019.575073,1159.626831 1023.061157,1159.000610 
z"/>
<path fill="#6DCCD0" opacity="1.000000" stroke="none" 
	d="
M812.306396,1182.765137 
	C817.471741,1191.619263 822.446960,1200.169189 827.877747,1209.502075 
	C818.711853,1210.762695 810.479126,1211.894897 801.882996,1213.077148 
	C802.061340,1211.527466 802.062378,1210.548584 802.296997,1209.629395 
	C804.793152,1199.846924 807.326477,1190.073730 810.023254,1179.625000 
	C811.021912,1180.978149 811.569031,1181.719604 812.306396,1182.765137 
z"/>
<path fill="#6DCCD0" opacity="1.000000" stroke="none" 
	d="
M487.876343,1241.294434 
	C488.759155,1243.420288 489.464111,1245.214844 490.363098,1247.503418 
	C479.558899,1249.045532 469.400452,1250.537109 459.226471,1251.913940 
	C457.079590,1252.204590 454.875824,1252.074341 452.698273,1252.138062 
	C453.139923,1249.854004 453.208923,1247.415039 454.083374,1245.310913 
	C460.035645,1230.987427 478.063965,1228.703003 487.876343,1241.294434 
z"/>
<path fill="#73D1D4" opacity="1.000000" stroke="none" 
	d="
M958.853333,1507.038574 
	C959.914246,1505.309814 960.528748,1503.415405 961.810974,1502.671021 
	C963.788452,1501.522827 966.453979,1500.278687 968.382324,1500.781860 
	C969.645630,1501.111450 970.841431,1504.459106 970.824707,1506.444580 
	C970.761902,1513.922363 970.272888,1521.401855 969.751465,1528.867188 
	C969.615967,1530.807983 969.351074,1533.254272 968.144043,1534.490479 
	C966.112915,1536.570557 963.390137,1538.962402 960.757629,1539.227417 
	C957.166199,1539.588745 956.409363,1535.862427 955.867981,1532.819580 
	C954.309631,1524.061035 955.468689,1515.609619 958.853333,1507.038574 
z"/>
<path fill="#73D1D4" opacity="1.000000" stroke="none" 
	d="
M1017.087585,1495.166626 
	C1018.287415,1493.985352 1019.158813,1492.894897 1020.288025,1492.271729 
	C1024.388184,1490.009521 1027.726318,1491.995361 1027.527466,1496.702271 
	C1027.190430,1504.681396 1026.630005,1512.651489 1026.116699,1520.622437 
	C1026.042725,1521.771240 1025.864502,1522.961670 1025.464966,1524.032349 
	C1024.114380,1527.650757 1022.007080,1530.875244 1017.732605,1530.715088 
	C1013.106445,1530.541626 1012.497437,1526.460571 1012.181030,1523.039062 
	C1011.296631,1513.476807 1011.796753,1504.059326 1017.087585,1495.166626 
z"/>
<path fill="#73D1D4" opacity="1.000000" stroke="none" 
	d="
M1152.904541,1500.463623 
	C1152.526733,1502.175903 1152.368774,1503.540527 1151.815674,1504.719849 
	C1150.266479,1508.022705 1148.115601,1510.905396 1143.973755,1510.380737 
	C1139.987305,1509.875732 1139.422241,1506.419800 1139.029541,1503.271484 
	C1137.988647,1494.927612 1138.468262,1486.683838 1141.814087,1478.863403 
	C1142.763916,1476.643188 1144.144531,1474.304443 1145.987915,1472.866577 
	C1147.417358,1471.751465 1150.155273,1471.205933 1151.782471,1471.816650 
	C1152.994751,1472.271973 1154.019897,1474.991943 1153.991455,1476.684204 
	C1153.860474,1484.470337 1153.330566,1492.249756 1152.904541,1500.463623 
z"/>
<path fill="#76D2D5" opacity="1.000000" stroke="none" 
	d="
M1110.215576,1483.052734 
	C1109.474609,1492.640625 1104.997192,1498.697144 1096.406616,1500.299072 
	C1098.391479,1493.361206 1099.907227,1487.003174 1102.146606,1480.911011 
	C1102.779053,1479.190430 1105.528198,1478.247681 1107.306519,1476.948242 
	C1108.274658,1478.836426 1109.242676,1480.724731 1110.215576,1483.052734 
z"/>
<path fill="#73D1D4" opacity="1.000000" stroke="none" 
	d="
M561.269958,1586.524902 
	C559.908264,1591.681763 559.101562,1596.671875 557.026978,1601.062622 
	C556.118408,1602.985474 552.617859,1604.600708 550.297729,1604.596313 
	C548.897339,1604.593628 546.706482,1601.389893 546.242126,1599.317383 
	C543.995911,1589.291626 545.520203,1579.528198 549.619324,1570.194336 
	C550.382629,1568.456299 551.740112,1566.606323 553.331299,1565.722534 
	C554.604431,1565.015503 557.167603,1565.073242 558.205872,1565.936890 
	C559.257812,1566.811768 559.981262,1569.531006 559.382874,1570.677490 
	C557.337402,1574.596313 557.311157,1577.674316 560.660095,1580.952637 
	C561.630737,1581.903076 561.133972,1584.352295 561.269958,1586.524902 
z"/>
<path fill="#76D2D5" opacity="1.000000" stroke="none" 
	d="
M495.432007,1635.403076 
	C497.837433,1633.042603 500.061401,1630.984009 502.285370,1628.925293 
	C502.749756,1629.195557 503.214172,1629.465820 503.678589,1629.736084 
	C503.257935,1632.420532 503.381042,1635.370483 502.241791,1637.704102 
	C501.356293,1639.518188 498.729187,1641.878052 497.172028,1641.679077 
	C493.889008,1641.259766 494.386902,1638.238037 495.432007,1635.403076 
z"/>
<path fill="#76D2D5" opacity="1.000000" stroke="none" 
	d="
M687.239380,1584.435547 
	C680.254761,1586.902710 678.405396,1586.207764 676.572510,1580.747437 
	C683.303345,1578.709351 683.913452,1577.275146 680.856140,1571.151001 
	C680.468201,1570.373901 680.367004,1569.250366 680.587402,1568.406006 
	C682.050537,1562.801514 683.637390,1557.229370 686.080750,1551.456299 
	C687.908447,1559.862671 690.114502,1568.215698 691.313110,1576.710815 
	C691.635742,1578.997803 688.896851,1581.716553 687.239380,1584.435547 
z"/>
<path fill="#76D2D5" opacity="1.000000" stroke="none" 
	d="
M731.059326,1544.231689 
	C732.633057,1541.282104 733.745056,1538.390625 735.682007,1536.243408 
	C737.596558,1534.121338 739.849792,1534.505737 741.036621,1537.567627 
	C743.965637,1545.124268 737.651123,1556.420044 728.356567,1558.467163 
	C729.276428,1553.570801 730.117615,1549.093262 731.059326,1544.231689 
z"/>
<path fill="#76D2D5" opacity="1.000000" stroke="none" 
	d="
M782.566101,1588.537598 
	C782.159241,1590.378540 782.274048,1592.313354 781.370667,1593.152710 
	C779.792053,1594.619873 777.587341,1595.413208 775.644897,1596.489014 
	C774.812134,1594.412231 772.698059,1591.596069 773.388977,1590.398682 
	C775.389160,1586.932617 778.516968,1584.117188 781.202271,1581.046387 
	C781.773071,1581.366333 782.343933,1581.686157 782.914795,1582.006104 
	C782.819641,1584.050049 782.724487,1586.094116 782.566101,1588.537598 
z"/>
<path fill="#73D1D4" opacity="1.000000" stroke="none" 
	d="
M426.070374,1625.417480 
	C421.105347,1626.859253 419.679657,1624.803955 419.948578,1620.424561 
	C420.458496,1612.119751 420.499664,1603.777222 421.293274,1595.503906 
	C421.537933,1592.953003 423.118286,1590.123047 424.928833,1588.223022 
	C427.808380,1585.200928 432.131989,1586.081177 433.326538,1590.057007 
	C436.538025,1600.745728 436.486023,1611.421997 430.898865,1621.463867 
	C430.008087,1623.064697 427.948212,1624.015015 426.070374,1625.417480 
z"/>
<path fill="#76D2D5" opacity="1.000000" stroke="none" 
	d="
M390.886230,1597.876953 
	C389.681732,1605.715576 386.375519,1611.455688 379.154877,1614.068970 
	C378.527069,1613.820679 377.899292,1613.572510 377.271484,1613.324219 
	C378.759979,1607.544312 379.820831,1601.600342 381.944000,1596.063599 
	C382.813751,1593.795654 385.978699,1592.407837 388.099640,1590.619629 
	C389.033051,1592.902466 389.966431,1595.185181 390.886230,1597.876953 
z"/>
<path fill="#76D2D5" opacity="1.000000" stroke="none" 
	d="
M342.403625,1618.505859 
	C340.708862,1619.476074 339.298859,1620.216553 337.041992,1621.401733 
	C336.834534,1612.810547 338.176300,1605.567261 342.826385,1599.251221 
	C343.619934,1598.173340 345.719727,1597.397827 347.046265,1597.599609 
	C347.957336,1597.738037 349.027100,1599.730957 349.247894,1601.027588 
	C350.434967,1607.999390 347.759399,1613.621460 342.403625,1618.505859 
z"/>
<path fill="#73D1D4" opacity="1.000000" stroke="none" 
	d="
M921.182495,1527.891113 
	C920.167053,1533.038208 919.571411,1537.853394 917.993103,1542.321533 
	C917.199341,1544.568604 914.932495,1546.721191 912.782593,1547.973755 
	C908.485352,1550.477051 905.843262,1548.699829 906.007996,1543.683838 
	C906.285950,1535.216553 906.568359,1526.739624 907.275757,1518.302612 
	C907.466675,1516.024780 908.765076,1513.497925 910.306152,1511.746216 
	C913.560364,1508.047729 918.288879,1508.921875 919.558350,1513.662842 
	C920.740356,1518.076904 920.698975,1522.818481 921.182495,1527.891113 
z"/>
</svg>