<?xml version="1.0" encoding="UTF-8"?>
<!DOCTYPE svg PUBLIC "-//W3C//DTD SVG 1.1//EN" "http://www.w3.org/Graphics/SVG/1.1/DTD/svg11.dtd">
<svg xmlns="http://www.w3.org/2000/svg" version="1.1" width="1440px" height="2880px" style="shape-rendering:geometricPrecision; text-rendering:geometricPrecision; image-rendering:optimizeQuality; fill-rule:evenodd; clip-rule:evenodd" xmlns:xlink="http://www.w3.org/1999/xlink">
<g><path style="opacity:1" fill="#011f4b" d="M -0.5,-0.5 C 479.5,-0.5 959.5,-0.5 1439.5,-0.5C 1439.5,959.5 1439.5,1919.5 1439.5,2879.5C 959.5,2879.5 479.5,2879.5 -0.5,2879.5C -0.5,1919.5 -0.5,959.5 -0.5,-0.5 Z"/></g>
<g><path style="opacity:1" fill="#336b7e" d="M 974.5,823.5 C 973.833,872.833 973.167,922.167 972.5,971.5C 972.167,921.829 972.5,872.162 973.5,822.5C 974.107,822.624 974.44,822.957 974.5,823.5 Z"/></g>
<g><path style="opacity:1" fill="#55a0a3" d="M 974.5,823.5 C 1057.3,872.403 1139.97,921.57 1222.5,971C 1220.08,971.29 1217.75,971.79 1215.5,972.5C 1208.79,973.356 1202.12,974.356 1195.5,975.5C 1190.46,975.908 1185.46,976.574 1180.5,977.5C 1126.39,985.346 1072.39,993.68 1018.5,1002.5C 1013.27,1002.44 1008.27,1003.11 1003.5,1004.5C 973.755,1008.43 944.089,1012.59 914.5,1017C 934.045,1002.07 953.378,986.899 972.5,971.5C 973.167,922.167 973.833,872.833 974.5,823.5 Z"/></g>
<g><path style="opacity:1" fill="#011e48" d="M 1215.5,972.5 C 1214.4,973.397 1214.4,974.23 1215.5,975C 1234.75,985.872 1253.58,997.372 1272,1009.5C 1274.19,1012.55 1275.86,1015.89 1277,1019.5C 1277.33,1026.5 1277.67,1033.5 1278,1040.5C 1281.07,1045.74 1283.07,1051.41 1284,1057.5C 1284.67,1153.5 1284.67,1249.5 1284,1345.5C 1283.25,1353.92 1280.09,1361.25 1274.5,1367.5C 1276.42,1371 1278.58,1374.34 1281,1377.5C 1282.62,1381.35 1283.62,1385.35 1284,1389.5C 1284.67,1485.5 1284.67,1581.5 1284,1677.5C 1281.41,1694.74 1271.24,1703.58 1253.5,1704C 1029.1,1737.29 804.771,1770.96 580.5,1805C 578.354,1805.48 577.354,1806.81 577.5,1809C 579.755,1817.89 578.255,1826.05 573,1833.5C 559.413,1845.76 545.246,1857.26 530.5,1868C 529.89,1869.95 529.057,1871.78 528,1873.5C 527.667,1916.5 527.333,1959.5 527,2002.5C 524.069,2020.73 513.569,2027.56 495.5,2023C 491.271,2021.89 487.271,2020.22 483.5,2018C 406.833,1972.33 330.167,1926.67 253.5,1881C 245.256,1871.81 243.256,1861.31 247.5,1849.5C 244.47,1844.1 241.97,1838.44 240,1832.5C 238.878,1827.9 238.378,1823.23 238.5,1818.5C 254.668,1828.42 271.002,1838.09 287.5,1847.5C 286.608,1850.11 284.941,1850.78 282.5,1849.5C 279.954,1850.66 277.454,1851.66 275,1852.5C 274.667,1852.17 274.333,1851.83 274,1851.5C 270.578,1853.31 267.411,1855.47 264.5,1858C 265.634,1859.02 265.301,1859.68 263.5,1860C 263.566,1862.47 263.566,1864.97 263.5,1867.5C 265.851,1870.34 268.185,1873.17 270.5,1876C 344.564,1920.79 419.064,1964.95 494,2008.5C 494.333,2008.17 494.667,2007.83 495,2007.5C 501.12,2010.34 506.453,2009.34 511,2004.5C 511.689,2001.59 512.855,1998.93 514.5,1996.5C 514.167,1995.83 513.833,1995.17 513.5,1994.5C 514.213,1992.22 514.713,1989.89 515,1987.5C 515.333,1947.5 515.667,1907.5 516,1867.5C 517.164,1865.35 518.33,1863.18 519.5,1861C 530.713,1851.14 542.213,1841.64 554,1832.5C 554.513,1830.48 555.68,1828.98 557.5,1828C 556.366,1826.98 556.699,1826.32 558.5,1826C 558.167,1825.67 557.833,1825.33 557.5,1825C 560.054,1822.6 560.054,1820.27 557.5,1818C 557.833,1817.67 558.167,1817.33 558.5,1817C 555.378,1814.57 552.378,1812.74 549.5,1811.5C 545.68,1812.8 541.847,1812.8 538,1811.5C 535.258,1812.71 532.592,1813.04 530,1812.5C 526.089,1813.84 522.256,1814.84 518.5,1815.5C 516.135,1814.71 513.801,1815.04 511.5,1816.5C 509.135,1815.71 506.801,1816.04 504.5,1817.5C 502.135,1816.71 499.801,1817.04 497.5,1818.5C 495.252,1817.62 493.085,1817.96 491,1819.5C 488.841,1818.8 486.674,1819.14 484.5,1820.5C 482.135,1819.71 479.801,1820.04 477.5,1821.5C 476.833,1821.17 476.167,1820.83 475.5,1820.5C 472.613,1822.43 469.613,1823.1 466.5,1822.5C 466.5,1817.83 466.5,1813.17 466.5,1808.5C 467.15,1808.8 467.817,1809.14 468.5,1809.5C 472.103,1808.71 475.77,1807.71 479.5,1806.5C 481.865,1807.29 484.199,1806.96 486.5,1805.5C 489.5,1805.5 492.5,1805.5 495.5,1805.5C 501.167,1804.17 506.833,1802.83 512.5,1801.5C 513.167,1801.83 513.833,1802.17 514.5,1802.5C 520.595,1801.35 526.595,1800.02 532.5,1798.5C 533.167,1798.83 533.833,1799.17 534.5,1799.5C 540.595,1798.35 546.595,1797.02 552.5,1795.5C 554.748,1796.38 556.915,1796.04 559,1794.5C 561.042,1795.29 563.042,1794.95 565,1793.5C 565.561,1794.02 566.228,1794.36 567,1794.5C 573.192,1793.24 579.359,1791.91 585.5,1790.5C 587.748,1791.38 589.915,1791.04 592,1789.5C 594.867,1789.57 597.7,1789.57 600.5,1789.5C 602.801,1788.04 605.135,1787.71 607.5,1788.5C 609.059,1787.93 610.559,1787.26 612,1786.5C 614.867,1786.57 617.7,1786.57 620.5,1786.5C 622.801,1785.04 625.135,1784.71 627.5,1785.5C 629.059,1784.93 630.559,1784.26 632,1783.5C 634.867,1783.57 637.7,1783.57 640.5,1783.5C 642.903,1782.3 645.236,1781.96 647.5,1782.5C 649.801,1781.04 652.135,1780.71 654.5,1781.5C 656.059,1780.93 657.559,1780.26 659,1779.5C 661.867,1779.57 664.7,1779.57 667.5,1779.5C 669.801,1778.04 672.135,1777.71 674.5,1778.5C 676.059,1777.93 677.559,1777.26 679,1776.5C 681.867,1776.57 684.7,1776.57 687.5,1776.5C 689.801,1775.04 692.135,1774.71 694.5,1775.5C 696.059,1774.93 697.559,1774.26 699,1773.5C 701.867,1773.57 704.7,1773.57 707.5,1773.5C 709.903,1772.3 712.236,1771.96 714.5,1772.5C 716.801,1771.04 719.135,1770.71 721.5,1771.5C 723.059,1770.93 724.559,1770.26 726,1769.5C 728.867,1769.57 731.7,1769.57 734.5,1769.5C 736.801,1768.04 739.135,1767.71 741.5,1768.5C 743.059,1767.93 744.559,1767.26 746,1766.5C 748.867,1766.57 751.7,1766.57 754.5,1766.5C 756.801,1765.04 759.135,1764.71 761.5,1765.5C 763.402,1763.85 765.402,1763.52 767.5,1764.5C 775.765,1763.06 784.099,1761.39 792.5,1759.5C 794.748,1760.38 796.915,1760.04 799,1758.5C 801.867,1758.57 804.7,1758.57 807.5,1758.5C 809.801,1757.04 812.135,1756.71 814.5,1757.5C 816.059,1756.93 817.559,1756.26 819,1755.5C 821.867,1755.57 824.7,1755.57 827.5,1755.5C 829.903,1754.3 832.236,1753.96 834.5,1754.5C 836.801,1753.04 839.135,1752.71 841.5,1753.5C 843.059,1752.93 844.559,1752.26 846,1751.5C 848.867,1751.57 851.7,1751.57 854.5,1751.5C 856.801,1750.04 859.135,1749.71 861.5,1750.5C 863.059,1749.93 864.559,1749.26 866,1748.5C 868.867,1748.57 871.7,1748.57 874.5,1748.5C 876.801,1747.04 879.135,1746.71 881.5,1747.5C 883.059,1746.93 884.559,1746.26 886,1745.5C 888.867,1745.57 891.7,1745.57 894.5,1745.5C 896.903,1744.3 899.236,1743.96 901.5,1744.5C 903.801,1743.04 906.135,1742.71 908.5,1743.5C 910.059,1742.93 911.559,1742.26 913,1741.5C 915.867,1741.57 918.7,1741.57 921.5,1741.5C 923.801,1740.04 926.135,1739.71 928.5,1740.5C 930.059,1739.93 931.559,1739.26 933,1738.5C 935.867,1738.57 938.7,1738.57 941.5,1738.5C 943.801,1737.04 946.135,1736.71 948.5,1737.5C 950.059,1736.93 951.559,1736.26 953,1735.5C 955.867,1735.57 958.7,1735.57 961.5,1735.5C 963.903,1734.3 966.236,1733.96 968.5,1734.5C 970.801,1733.04 973.135,1732.71 975.5,1733.5C 977.059,1732.93 978.559,1732.26 980,1731.5C 982.867,1731.57 985.7,1731.57 988.5,1731.5C 990.801,1730.04 993.135,1729.71 995.5,1730.5C 997.059,1729.93 998.559,1729.26 1000,1728.5C 1002.87,1728.57 1005.7,1728.57 1008.5,1728.5C 1010.8,1727.04 1013.13,1726.71 1015.5,1727.5C 1017.06,1726.93 1018.56,1726.26 1020,1725.5C 1022.8,1725.41 1025.63,1725.41 1028.5,1725.5C 1030.06,1724.93 1031.56,1724.26 1033,1723.5C 1035.87,1723.57 1038.7,1723.57 1041.5,1723.5C 1043.8,1722.04 1046.13,1721.71 1048.5,1722.5C 1056.77,1721.06 1065.1,1719.39 1073.5,1717.5C 1075.75,1718.38 1077.91,1718.04 1080,1716.5C 1082.87,1716.57 1085.7,1716.57 1088.5,1716.5C 1090.8,1715.04 1093.13,1714.71 1095.5,1715.5C 1103.77,1714.06 1112.1,1712.39 1120.5,1710.5C 1122.75,1711.38 1124.91,1711.04 1127,1709.5C 1129.87,1709.57 1132.7,1709.57 1135.5,1709.5C 1137.8,1708.04 1140.13,1707.71 1142.5,1708.5C 1150.77,1707.06 1159.1,1705.39 1167.5,1703.5C 1169.75,1704.38 1171.91,1704.04 1174,1702.5C 1176.87,1702.57 1179.7,1702.57 1182.5,1702.5C 1184.8,1701.04 1187.13,1700.71 1189.5,1701.5C 1197.77,1700.06 1206.1,1698.39 1214.5,1696.5C 1216.75,1697.38 1218.91,1697.04 1221,1695.5C 1221.41,1695.96 1221.91,1696.29 1222.5,1696.5C 1226.46,1695.43 1230.46,1694.43 1234.5,1693.5C 1236.87,1694.29 1239.2,1693.96 1241.5,1692.5C 1244.03,1692.57 1246.53,1692.57 1249,1692.5C 1250.71,1691.24 1252.37,1690.9 1254,1691.5C 1255.67,1690.5 1257.33,1689.5 1259,1688.5C 1259.33,1688.83 1259.67,1689.17 1260,1689.5C 1265.09,1685.99 1268.76,1681.32 1271,1675.5C 1271.67,1580.83 1271.67,1486.17 1271,1391.5C 1269.51,1390.75 1269.35,1389.91 1270.5,1389C 1268.89,1387 1266.89,1384.67 1264.5,1382C 1261.46,1380.18 1258.29,1379.01 1255,1378.5C 1244.47,1379.59 1233.97,1380.92 1223.5,1382.5C 1223.5,1376.17 1223.5,1369.83 1223.5,1363.5C 1226.11,1364.64 1228.61,1364.3 1231,1362.5C 1233.34,1363.18 1235.68,1362.84 1238,1361.5C 1240.87,1361.57 1243.7,1361.57 1246.5,1361.5C 1248.17,1360.11 1249.84,1359.78 1251.5,1360.5C 1252.75,1359.96 1253.91,1359.29 1255,1358.5C 1255.33,1358.83 1255.67,1359.17 1256,1359.5C 1258.75,1357.48 1261.59,1355.98 1264.5,1355C 1266.5,1352.33 1268.5,1349.67 1270.5,1347C 1269.35,1346.09 1269.51,1345.25 1271,1344.5C 1271.67,1249.83 1271.67,1155.17 1271,1060.5C 1269.46,1055.36 1266.46,1051.36 1262,1048.5C 1261.67,1048.83 1261.33,1049.17 1261,1049.5C 1258.97,1048.95 1256.8,1047.95 1254.5,1046.5C 1244.01,1046.93 1233.67,1048.26 1223.5,1050.5C 1223.5,1047.5 1223.5,1044.5 1223.5,1041.5C 1227.51,1040.12 1231.51,1039.12 1235.5,1038.5C 1237.6,1039.48 1239.6,1039.15 1241.5,1037.5C 1242.09,1037.71 1242.59,1038.04 1243,1038.5C 1245.09,1037.21 1247.09,1036.21 1249,1035.5C 1250.02,1036.63 1250.68,1036.3 1251,1034.5C 1252,1034.5 1253,1034.5 1254,1034.5C 1256.55,1032.34 1258.38,1030.18 1259.5,1028C 1259.33,1025.59 1259.33,1023.26 1259.5,1021C 1257.43,1017.8 1255.1,1014.8 1252.5,1012C 1243.55,1007.04 1234.89,1001.71 1226.5,996C 1225.55,995.517 1224.55,995.351 1223.5,995.5C 1223.05,994.542 1222.38,993.708 1221.5,993C 1212.01,988.426 1203.01,983.093 1194.5,977C 1195.06,976.617 1195.39,976.117 1195.5,975.5C 1202.12,974.356 1208.79,973.356 1215.5,972.5 Z"/></g>
<g><path style="opacity:1" fill="#081e3e" d="M 1195.5,975.5 C 1195.39,976.117 1195.06,976.617 1194.5,977C 1203.01,983.093 1212.01,988.426 1221.5,993C 1222.38,993.708 1223.05,994.542 1223.5,995.5C 1218.5,996.167 1213.5,996.833 1208.5,997.5C 1198.56,990.856 1188.23,984.689 1177.5,979C 1178.74,978.768 1179.74,978.268 1180.5,977.5C 1185.46,976.574 1190.46,975.908 1195.5,975.5 Z"/></g>
<g><path style="opacity:1" fill="#111e30" d="M 1180.5,977.5 C 1179.74,978.268 1178.74,978.768 1177.5,979C 1188.23,984.689 1198.56,990.856 1208.5,997.5C 1144.21,1007.26 1079.88,1016.92 1015.5,1026.5C 1016.01,1023.81 1017.01,1021.31 1018.5,1019C 1018.15,1013.6 1018.15,1008.1 1018.5,1002.5C 1072.39,993.68 1126.39,985.346 1180.5,977.5 Z"/></g>
<g><path style="opacity:1" fill="#061d40" d="M 1223.5,995.5 C 1224.55,995.351 1225.55,995.517 1226.5,996C 1234.89,1001.71 1243.55,1007.04 1252.5,1012C 1255.1,1014.8 1257.43,1017.8 1259.5,1021C 1259.33,1023.26 1259.33,1025.59 1259.5,1028C 1258.38,1030.18 1256.55,1032.34 1254,1034.5C 1253,1034.5 1252,1034.5 1251,1034.5C 1250.68,1036.3 1250.02,1036.63 1249,1035.5C 1247.09,1036.21 1245.09,1037.21 1243,1038.5C 1242.59,1038.04 1242.09,1037.71 1241.5,1037.5C 1239.6,1039.15 1237.6,1039.48 1235.5,1038.5C 1231.51,1039.12 1227.51,1040.12 1223.5,1041.5C 1223.5,1037.83 1223.5,1034.17 1223.5,1030.5C 1228.15,1029.4 1232.81,1028.24 1237.5,1027C 1241.74,1024.83 1242.57,1021.66 1240,1017.5C 1235.04,1012.94 1229.54,1009.28 1223.5,1006.5C 1223.5,1002.83 1223.5,999.167 1223.5,995.5 Z"/></g>
<g><path style="opacity:1" fill="#6fcfd2" d="M 1223.5,995.5 C 1223.5,999.167 1223.5,1002.83 1223.5,1006.5C 1223.5,1014.5 1223.5,1022.5 1223.5,1030.5C 1223.5,1034.17 1223.5,1037.83 1223.5,1041.5C 1223.5,1044.5 1223.5,1047.5 1223.5,1050.5C 1223.5,1052.5 1223.5,1054.5 1223.5,1056.5C 1223.5,1058.17 1223.5,1059.83 1223.5,1061.5C 1223.5,1064.17 1223.5,1066.83 1223.5,1069.5C 1223.5,1144.83 1223.5,1220.17 1223.5,1295.5C 902.421,1342.76 581.421,1390.76 260.5,1439.5C 256.236,1439.34 252.236,1440.01 248.5,1441.5C 237.467,1442.57 226.467,1443.91 215.5,1445.5C 215.168,1345.6 215.501,1245.76 216.5,1146C 478.147,1106.79 739.814,1067.62 1001.5,1028.5C 1006.17,1027.83 1010.83,1027.17 1015.5,1026.5C 1079.88,1016.92 1144.21,1007.26 1208.5,997.5C 1213.5,996.833 1218.5,996.167 1223.5,995.5 Z"/></g>
<g><path style="opacity:1" fill="#071e40" d="M 1018.5,1002.5 C 1018.15,1008.1 1018.15,1013.6 1018.5,1019C 1017.01,1021.31 1016.01,1023.81 1015.5,1026.5C 1010.83,1027.17 1006.17,1027.83 1001.5,1028.5C 1003.89,1026.27 1005.72,1023.6 1007,1020.5C 1007.5,1015.18 1007.67,1009.84 1007.5,1004.5C 1006.17,1004.5 1004.83,1004.5 1003.5,1004.5C 1008.27,1003.11 1013.27,1002.44 1018.5,1002.5 Z"/></g>
<g><path style="opacity:1" fill="#0d1d34" d="M 1223.5,1006.5 C 1229.54,1009.28 1235.04,1012.94 1240,1017.5C 1242.57,1021.66 1241.74,1024.83 1237.5,1027C 1232.81,1028.24 1228.15,1029.4 1223.5,1030.5C 1223.5,1022.5 1223.5,1014.5 1223.5,1006.5 Z"/></g>
<g><path style="opacity:1" fill="#051e41" d="M 1223.5,1363.5 C 1223.5,1361.83 1223.5,1360.17 1223.5,1358.5C 1231.92,1357.95 1240.42,1356.62 1249,1354.5C 1258.2,1353.83 1264.03,1348.83 1266.5,1339.5C 1266.5,1248.17 1266.5,1156.83 1266.5,1065.5C 1265.83,1063.5 1265.17,1061.5 1264.5,1059.5C 1262.18,1057.68 1260.02,1055.68 1258,1053.5C 1249.93,1053.06 1241.77,1053.73 1233.5,1055.5C 1232.91,1055.29 1232.41,1054.96 1232,1054.5C 1229.31,1055.71 1226.48,1056.38 1223.5,1056.5C 1223.5,1054.5 1223.5,1052.5 1223.5,1050.5C 1233.67,1048.26 1244.01,1046.93 1254.5,1046.5C 1256.8,1047.95 1258.97,1048.95 1261,1049.5C 1261.33,1049.17 1261.67,1048.83 1262,1048.5C 1266.46,1051.36 1269.46,1055.36 1271,1060.5C 1271.67,1155.17 1271.67,1249.83 1271,1344.5C 1269.51,1345.25 1269.35,1346.09 1270.5,1347C 1268.5,1349.67 1266.5,1352.33 1264.5,1355C 1261.59,1355.98 1258.75,1357.48 1256,1359.5C 1255.67,1359.17 1255.33,1358.83 1255,1358.5C 1253.91,1359.29 1252.75,1359.96 1251.5,1360.5C 1249.84,1359.78 1248.17,1360.11 1246.5,1361.5C 1243.7,1361.57 1240.87,1361.57 1238,1361.5C 1235.68,1362.84 1233.34,1363.18 1231,1362.5C 1228.61,1364.3 1226.11,1364.64 1223.5,1363.5 Z"/></g>
<g><path style="opacity:1" fill="#091d3b" d="M 1223.5,1358.5 C 1223.5,1357.17 1223.5,1355.83 1223.5,1354.5C 1233.18,1352.9 1242.84,1351.07 1252.5,1349C 1256,1347.59 1258.66,1345.26 1260.5,1342C 1260.17,1341.67 1259.83,1341.33 1259.5,1341C 1261.07,1339.17 1261.91,1337.01 1262,1334.5C 1262.17,1290.67 1262.33,1246.83 1262.5,1203C 1262.65,1157.14 1262.15,1111.3 1261,1065.5C 1260.06,1062.6 1258.39,1060.27 1256,1058.5C 1250.98,1058.6 1245.48,1058.77 1239.5,1059C 1234.14,1059.73 1228.8,1060.56 1223.5,1061.5C 1223.5,1059.83 1223.5,1058.17 1223.5,1056.5C 1226.48,1056.38 1229.31,1055.71 1232,1054.5C 1232.41,1054.96 1232.91,1055.29 1233.5,1055.5C 1241.77,1053.73 1249.93,1053.06 1258,1053.5C 1260.02,1055.68 1262.18,1057.68 1264.5,1059.5C 1265.17,1061.5 1265.83,1063.5 1266.5,1065.5C 1266.5,1156.83 1266.5,1248.17 1266.5,1339.5C 1264.03,1348.83 1258.2,1353.83 1249,1354.5C 1240.42,1356.62 1231.92,1357.95 1223.5,1358.5 Z"/></g>
<g><path style="opacity:1" fill="#0d1d34" d="M 1223.5,1354.5 C 1223.5,1351.83 1223.5,1349.17 1223.5,1346.5C 1230.95,1345.12 1238.45,1343.79 1246,1342.5C 1248.04,1341.16 1250.04,1339.83 1252,1338.5C 1252.51,1336.12 1253.18,1333.79 1254,1331.5C 1254.67,1245.83 1254.67,1160.17 1254,1074.5C 1252.84,1072.71 1252.17,1070.71 1252,1068.5C 1250.93,1067.81 1249.77,1067.31 1248.5,1067C 1240.08,1066.84 1231.75,1067.68 1223.5,1069.5C 1223.5,1066.83 1223.5,1064.17 1223.5,1061.5C 1228.8,1060.56 1234.14,1059.73 1239.5,1059C 1245.48,1058.77 1250.98,1058.6 1256,1058.5C 1258.39,1060.27 1260.06,1062.6 1261,1065.5C 1262.15,1111.3 1262.65,1157.14 1262.5,1203C 1262.33,1246.83 1262.17,1290.67 1262,1334.5C 1261.91,1337.01 1261.07,1339.17 1259.5,1341C 1259.83,1341.33 1260.17,1341.67 1260.5,1342C 1258.66,1345.26 1256,1347.59 1252.5,1349C 1242.84,1351.07 1233.18,1352.9 1223.5,1354.5 Z"/></g>
<g><path style="opacity:1" fill="#111d2f" d="M 1223.5,1346.5 C 1223.5,1340.17 1223.5,1333.83 1223.5,1327.5C 902.076,1375.01 580.743,1423.01 259.5,1471.5C 260.476,1460.91 260.809,1450.25 260.5,1439.5C 581.421,1390.76 902.421,1342.76 1223.5,1295.5C 1223.5,1220.17 1223.5,1144.83 1223.5,1069.5C 1231.75,1067.68 1240.08,1066.84 1248.5,1067C 1249.77,1067.31 1250.93,1067.81 1252,1068.5C 1252.17,1070.71 1252.84,1072.71 1254,1074.5C 1254.67,1160.17 1254.67,1245.83 1254,1331.5C 1253.18,1333.79 1252.51,1336.12 1252,1338.5C 1250.04,1339.83 1248.04,1341.16 1246,1342.5C 1238.45,1343.79 1230.95,1345.12 1223.5,1346.5 Z"/></g>
<g><path style="opacity:1" fill="#02204c" d="M 1016.5,1136.5 C 1036.19,1133.54 1050.35,1140.87 1059,1158.5C 1066.41,1176.19 1064.74,1192.86 1054,1208.5C 1039.57,1222.28 1023.9,1223.95 1007,1213.5C 1006.33,1216.5 1006.33,1219.5 1007,1222.5C 1009.07,1234.81 1010.9,1247.14 1012.5,1259.5C 1005.84,1260.23 999.175,1260.89 992.5,1261.5C 986.841,1222.54 981.507,1183.54 976.5,1144.5C 983.157,1143.74 989.823,1143.07 996.5,1142.5C 996.858,1146.51 997.358,1150.51 998,1154.5C 1002.08,1146.25 1008.24,1140.25 1016.5,1136.5 Z"/></g>
<g><path style="opacity:1" fill="#02204c" d="M 803.5,1141.5 C 805.792,1141.24 807.959,1141.58 810,1142.5C 830.833,1174.83 851.667,1207.17 872.5,1239.5C 863.909,1241.82 855.242,1242.82 846.5,1242.5C 843.667,1237.5 840.833,1232.5 838,1227.5C 836.874,1226.06 835.374,1225.39 833.5,1225.5C 820.849,1227.44 808.182,1229.28 795.5,1231C 792.804,1237.95 790.804,1245.11 789.5,1252.5C 781.127,1253.17 772.794,1254.17 764.5,1255.5C 775.301,1217.76 786.301,1180.1 797.5,1142.5C 799.735,1142.79 801.735,1142.46 803.5,1141.5 Z"/></g>
<g><path style="opacity:1" fill="#02204c" d="M 916.5,1150.5 C 946.667,1149.42 962.001,1164.09 962.5,1194.5C 961.83,1221.98 947.83,1235.15 920.5,1234C 915.023,1232.68 910.189,1230.18 906,1226.5C 908.018,1242.11 909.851,1257.77 911.5,1273.5C 904.823,1274.07 898.157,1274.74 891.5,1275.5C 886.368,1236.51 881.368,1197.51 876.5,1158.5C 883.078,1157.05 889.745,1156.39 896.5,1156.5C 896.344,1160.58 896.844,1164.58 898,1168.5C 902.077,1160.25 908.244,1154.25 916.5,1150.5 Z"/></g>
<g><path style="opacity:1" fill="#6ecdd1" d="M 1017.5,1156.5 C 1028.73,1155.58 1036.56,1160.24 1041,1170.5C 1043.53,1181.17 1041.03,1190.34 1033.5,1198C 1022.27,1203.72 1012.11,1202.22 1003,1193.5C 1001.8,1186.2 1001.46,1178.86 1002,1171.5C 1005.11,1164.23 1010.27,1159.23 1017.5,1156.5 Z"/></g>
<g><path style="opacity:1" fill="#6ecdd1" d="M 917.5,1170.5 C 937.516,1172.17 945.016,1182.83 940,1202.5C 934.321,1214.42 925.154,1218.25 912.5,1214C 907.48,1212.37 904.147,1209.2 902.5,1204.5C 897.307,1188.24 902.307,1176.91 917.5,1170.5 Z"/></g>
<g><path style="opacity:1" fill="#6bc9cd" d="M 807.5,1178.5 C 808.496,1178.41 809.329,1178.75 810,1179.5C 815.721,1188.95 820.887,1198.61 825.5,1208.5C 817.129,1209.22 808.795,1210.22 800.5,1211.5C 802.674,1200.47 805.008,1189.47 807.5,1178.5 Z"/></g>
<g><path style="opacity:1" fill="#02204c" d="M 668.5,1185.5 C 674.509,1185.33 680.509,1185.5 686.5,1186C 689.903,1186.58 693.07,1187.74 696,1189.5C 697.69,1195.14 698.19,1200.8 697.5,1206.5C 690.188,1202.97 682.521,1201.81 674.5,1203C 668.223,1204.94 665.723,1209.1 667,1215.5C 668.214,1217.05 669.714,1218.22 671.5,1219C 680.791,1220.32 689.791,1222.66 698.5,1226C 708.625,1234.83 710.125,1244.99 703,1256.5C 688.475,1271.43 671.642,1274.59 652.5,1266C 650.733,1260.3 649.9,1254.47 650,1248.5C 660.181,1253.79 670.681,1254.62 681.5,1251C 685.894,1247.57 686.561,1243.57 683.5,1239C 673.785,1236.46 664.118,1233.79 654.5,1231C 647.654,1226 644.32,1219.17 644.5,1210.5C 647.056,1196.94 655.056,1188.61 668.5,1185.5 Z"/></g>
<g><path style="opacity:1" fill="#02204c" d="M 626.5,1193.5 C 628.604,1193.2 630.604,1193.53 632.5,1194.5C 626.267,1221.67 620.933,1249 616.5,1276.5C 611.732,1276.52 607.066,1277.18 602.5,1278.5C 593.429,1262.7 584.595,1246.7 576,1230.5C 571.475,1247.96 567.641,1265.62 564.5,1283.5C 559.954,1283.84 555.454,1284.51 551,1285.5C 550.228,1285.36 549.561,1285.02 549,1284.5C 536.756,1259.68 524.256,1235.01 511.5,1210.5C 518.756,1208.38 526.089,1207.71 533.5,1208.5C 540.333,1222.83 547.167,1237.17 554,1251.5C 557.814,1235.23 561.314,1218.89 564.5,1202.5C 568.709,1202.16 572.875,1201.49 577,1200.5C 577.833,1200.83 578.667,1201.17 579.5,1201.5C 587.425,1215.68 595.092,1230.02 602.5,1244.5C 605.276,1228.18 607.943,1211.84 610.5,1195.5C 616.069,1195.62 621.402,1194.96 626.5,1193.5 Z"/></g>
<g><path style="opacity:1" fill="#01204c" d="M 395.5,1199.5 C 396.833,1199.5 398.167,1199.5 399.5,1199.5C 404.26,1234.82 408.927,1270.16 413.5,1305.5C 409.474,1307.27 405.807,1306.77 402.5,1304C 380.643,1286.64 358.643,1269.48 336.5,1252.5C 335.345,1255.45 335.179,1258.45 336,1261.5C 339.009,1279.11 341.509,1296.77 343.5,1314.5C 336.197,1315.69 328.863,1316.69 321.5,1317.5C 316.444,1282.22 311.778,1246.89 307.5,1211.5C 311.526,1209.73 315.193,1210.23 318.5,1213C 340.909,1230.95 363.409,1248.79 386,1266.5C 383.874,1245.12 381.041,1223.78 377.5,1202.5C 383.69,1201.86 389.69,1200.86 395.5,1199.5 Z"/></g>
<g><path style="opacity:1" fill="#02214c" d="M 502.5,1266.5 C 503.167,1267.5 503.833,1268.5 504.5,1269.5C 505.148,1274.83 505.315,1280.16 505,1285.5C 485.441,1301.84 465.274,1302.67 444.5,1288C 427.415,1268.74 426.248,1248.57 441,1227.5C 457.171,1211.56 475.005,1209.39 494.5,1221C 504.861,1230.93 509.861,1243.09 509.5,1257.5C 490.46,1259.55 471.46,1261.89 452.5,1264.5C 454.24,1272.08 458.907,1276.91 466.5,1279C 480.782,1281.07 492.782,1276.91 502.5,1266.5 Z"/></g>
<g><path style="opacity:1" fill="#6ccace" d="M 455.5,1250.5 C 454.167,1250.5 452.833,1250.5 451.5,1250.5C 451.5,1249.5 451.5,1248.5 451.5,1247.5C 454.849,1235.34 462.849,1230.18 475.5,1232C 483.222,1233.88 487.555,1238.72 488.5,1246.5C 477.5,1247.83 466.5,1249.17 455.5,1250.5 Z"/></g>
<g><path style="opacity:1" fill="#3c7d93" d="M 451.5,1247.5 C 451.5,1248.5 451.5,1249.5 451.5,1250.5C 452.833,1250.5 454.167,1250.5 455.5,1250.5C 454.081,1251.45 452.415,1251.78 450.5,1251.5C 450.232,1249.9 450.566,1248.57 451.5,1247.5 Z"/></g>
<g><path style="opacity:1" fill="#347089" d="M 502.5,1266.5 C 502.56,1265.96 502.893,1265.62 503.5,1265.5C 504.429,1266.69 504.762,1268.02 504.5,1269.5C 503.833,1268.5 503.167,1267.5 502.5,1266.5 Z"/></g>
<g><path style="opacity:1" fill="#70cfd2" d="M 1223.5,1346.5 C 1223.5,1349.17 1223.5,1351.83 1223.5,1354.5C 1223.5,1355.83 1223.5,1357.17 1223.5,1358.5C 1223.5,1360.17 1223.5,1361.83 1223.5,1363.5C 1223.5,1369.83 1223.5,1376.17 1223.5,1382.5C 1223.5,1384.5 1223.5,1386.5 1223.5,1388.5C 1223.5,1389.83 1223.5,1391.17 1223.5,1392.5C 1223.5,1393.17 1223.5,1393.83 1223.5,1394.5C 1223.5,1396.5 1223.5,1398.5 1223.5,1400.5C 1223.5,1475.83 1223.5,1551.17 1223.5,1626.5C 900.689,1674.85 578.022,1723.19 255.5,1771.5C 252.941,1771.2 250.607,1771.53 248.5,1772.5C 237.504,1773.92 226.504,1775.25 215.5,1776.5C 215.5,1676.83 215.5,1577.17 215.5,1477.5C 227.5,1475.83 239.5,1474.17 251.5,1472.5C 254.096,1471.73 256.763,1471.4 259.5,1471.5C 580.743,1423.01 902.076,1375.01 1223.5,1327.5C 1223.5,1333.83 1223.5,1340.17 1223.5,1346.5 Z"/></g>
<g><path style="opacity:1" fill="#051e41" d="M 466.5,1808.5 C 466.5,1807.17 466.5,1805.83 466.5,1804.5C 467.167,1804.17 467.833,1803.83 468.5,1803.5C 719.163,1765.83 969.829,1728.17 1220.5,1690.5C 1221.09,1690.71 1221.59,1691.04 1222,1691.5C 1234.11,1689.39 1246.11,1686.72 1258,1683.5C 1262.66,1680.34 1265.49,1676.01 1266.5,1670.5C 1266.5,1579.5 1266.5,1488.5 1266.5,1397.5C 1265.6,1390.8 1261.93,1386.64 1255.5,1385C 1244.85,1384.47 1234.18,1385.63 1223.5,1388.5C 1223.5,1386.5 1223.5,1384.5 1223.5,1382.5C 1233.97,1380.92 1244.47,1379.59 1255,1378.5C 1258.29,1379.01 1261.46,1380.18 1264.5,1382C 1266.89,1384.67 1268.89,1387 1270.5,1389C 1269.35,1389.91 1269.51,1390.75 1271,1391.5C 1271.67,1486.17 1271.67,1580.83 1271,1675.5C 1268.76,1681.32 1265.09,1685.99 1260,1689.5C 1259.67,1689.17 1259.33,1688.83 1259,1688.5C 1257.33,1689.5 1255.67,1690.5 1254,1691.5C 1252.37,1690.9 1250.71,1691.24 1249,1692.5C 1246.53,1692.57 1244.03,1692.57 1241.5,1692.5C 1239.2,1693.96 1236.87,1694.29 1234.5,1693.5C 1230.46,1694.43 1226.46,1695.43 1222.5,1696.5C 1221.91,1696.29 1221.41,1695.96 1221,1695.5C 1218.91,1697.04 1216.75,1697.38 1214.5,1696.5C 1206.1,1698.39 1197.77,1700.06 1189.5,1701.5C 1187.13,1700.71 1184.8,1701.04 1182.5,1702.5C 1179.7,1702.57 1176.87,1702.57 1174,1702.5C 1171.91,1704.04 1169.75,1704.38 1167.5,1703.5C 1159.1,1705.39 1150.77,1707.06 1142.5,1708.5C 1140.13,1707.71 1137.8,1708.04 1135.5,1709.5C 1132.7,1709.57 1129.87,1709.57 1127,1709.5C 1124.91,1711.04 1122.75,1711.38 1120.5,1710.5C 1112.1,1712.39 1103.77,1714.06 1095.5,1715.5C 1093.13,1714.71 1090.8,1715.04 1088.5,1716.5C 1085.7,1716.57 1082.87,1716.57 1080,1716.5C 1077.91,1718.04 1075.75,1718.38 1073.5,1717.5C 1065.1,1719.39 1056.77,1721.06 1048.5,1722.5C 1046.13,1721.71 1043.8,1722.04 1041.5,1723.5C 1038.7,1723.57 1035.87,1723.57 1033,1723.5C 1031.56,1724.26 1030.06,1724.93 1028.5,1725.5C 1025.63,1725.41 1022.8,1725.41 1020,1725.5C 1018.56,1726.26 1017.06,1726.93 1015.5,1727.5C 1013.13,1726.71 1010.8,1727.04 1008.5,1728.5C 1005.7,1728.57 1002.87,1728.57 1000,1728.5C 998.559,1729.26 997.059,1729.93 995.5,1730.5C 993.135,1729.71 990.801,1730.04 988.5,1731.5C 985.7,1731.57 982.867,1731.57 980,1731.5C 978.559,1732.26 977.059,1732.93 975.5,1733.5C 973.135,1732.71 970.801,1733.04 968.5,1734.5C 966.236,1733.96 963.903,1734.3 961.5,1735.5C 958.7,1735.57 955.867,1735.57 953,1735.5C 951.559,1736.26 950.059,1736.93 948.5,1737.5C 946.135,1736.71 943.801,1737.04 941.5,1738.5C 938.7,1738.57 935.867,1738.57 933,1738.5C 931.559,1739.26 930.059,1739.93 928.5,1740.5C 926.135,1739.71 923.801,1740.04 921.5,1741.5C 918.7,1741.57 915.867,1741.57 913,1741.5C 911.559,1742.26 910.059,1742.93 908.5,1743.5C 906.135,1742.71 903.801,1743.04 901.5,1744.5C 899.236,1743.96 896.903,1744.3 894.5,1745.5C 891.7,1745.57 888.867,1745.57 886,1745.5C 884.559,1746.26 883.059,1746.93 881.5,1747.5C 879.135,1746.71 876.801,1747.04 874.5,1748.5C 871.7,1748.57 868.867,1748.57 866,1748.5C 864.559,1749.26 863.059,1749.93 861.5,1750.5C 859.135,1749.71 856.801,1750.04 854.5,1751.5C 851.7,1751.57 848.867,1751.57 846,1751.5C 844.559,1752.26 843.059,1752.93 841.5,1753.5C 839.135,1752.71 836.801,1753.04 834.5,1754.5C 832.236,1753.96 829.903,1754.3 827.5,1755.5C 824.7,1755.57 821.867,1755.57 819,1755.5C 817.559,1756.26 816.059,1756.93 814.5,1757.5C 812.135,1756.71 809.801,1757.04 807.5,1758.5C 804.7,1758.57 801.867,1758.57 799,1758.5C 796.915,1760.04 794.748,1760.38 792.5,1759.5C 784.099,1761.39 775.765,1763.06 767.5,1764.5C 765.402,1763.52 763.402,1763.85 761.5,1765.5C 759.135,1764.71 756.801,1765.04 754.5,1766.5C 751.7,1766.57 748.867,1766.57 746,1766.5C 744.559,1767.26 743.059,1767.93 741.5,1768.5C 739.135,1767.71 736.801,1768.04 734.5,1769.5C 731.7,1769.57 728.867,1769.57 726,1769.5C 724.559,1770.26 723.059,1770.93 721.5,1771.5C 719.135,1770.71 716.801,1771.04 714.5,1772.5C 712.236,1771.96 709.903,1772.3 707.5,1773.5C 704.7,1773.57 701.867,1773.57 699,1773.5C 697.559,1774.26 696.059,1774.93 694.5,1775.5C 692.135,1774.71 689.801,1775.04 687.5,1776.5C 684.7,1776.57 681.867,1776.57 679,1776.5C 677.559,1777.26 676.059,1777.93 674.5,1778.5C 672.135,1777.71 669.801,1778.04 667.5,1779.5C 664.7,1779.57 661.867,1779.57 659,1779.5C 657.559,1780.26 656.059,1780.93 654.5,1781.5C 652.135,1780.71 649.801,1781.04 647.5,1782.5C 645.236,1781.96 642.903,1782.3 640.5,1783.5C 637.7,1783.57 634.867,1783.57 632,1783.5C 630.559,1784.26 629.059,1784.93 627.5,1785.5C 625.135,1784.71 622.801,1785.04 620.5,1786.5C 617.7,1786.57 614.867,1786.57 612,1786.5C 610.559,1787.26 609.059,1787.93 607.5,1788.5C 605.135,1787.71 602.801,1788.04 600.5,1789.5C 597.7,1789.57 594.867,1789.57 592,1789.5C 589.915,1791.04 587.748,1791.38 585.5,1790.5C 579.359,1791.91 573.192,1793.24 567,1794.5C 566.228,1794.36 565.561,1794.02 565,1793.5C 563.042,1794.95 561.042,1795.29 559,1794.5C 556.915,1796.04 554.748,1796.38 552.5,1795.5C 546.595,1797.02 540.595,1798.35 534.5,1799.5C 533.833,1799.17 533.167,1798.83 532.5,1798.5C 526.595,1800.02 520.595,1801.35 514.5,1802.5C 513.833,1802.17 513.167,1801.83 512.5,1801.5C 506.833,1802.83 501.167,1804.17 495.5,1805.5C 492.5,1805.5 489.5,1805.5 486.5,1805.5C 484.199,1806.96 481.865,1807.29 479.5,1806.5C 475.77,1807.71 472.103,1808.71 468.5,1809.5C 467.817,1809.14 467.15,1808.8 466.5,1808.5 Z"/></g>
<g><path style="opacity:1" fill="#091d3b" d="M 468.5,1803.5 C 470.607,1801.27 472.94,1799.27 475.5,1797.5C 733.934,1758.84 992.1,1720.18 1250,1681.5C 1253.48,1680.18 1256.65,1678.51 1259.5,1676.5C 1260.76,1672.96 1261.59,1669.3 1262,1665.5C 1262.67,1577.83 1262.67,1490.17 1262,1402.5C 1261.66,1396.54 1258.83,1392.37 1253.5,1390C 1250.62,1390.37 1247.79,1390.2 1245,1389.5C 1237.88,1390.92 1230.72,1391.92 1223.5,1392.5C 1223.5,1391.17 1223.5,1389.83 1223.5,1388.5C 1234.18,1385.63 1244.85,1384.47 1255.5,1385C 1261.93,1386.64 1265.6,1390.8 1266.5,1397.5C 1266.5,1488.5 1266.5,1579.5 1266.5,1670.5C 1265.49,1676.01 1262.66,1680.34 1258,1683.5C 1246.11,1686.72 1234.11,1689.39 1222,1691.5C 1221.59,1691.04 1221.09,1690.71 1220.5,1690.5C 969.829,1728.17 719.163,1765.83 468.5,1803.5 Z"/></g>
<g><path style="opacity:1" fill="#0b1d37" d="M 475.5,1797.5 C 476.795,1796.51 478.128,1795.51 479.5,1794.5C 731.177,1757.14 982.844,1719.64 1234.5,1682C 1240.99,1681.31 1247.33,1679.98 1253.5,1678C 1256.87,1675.73 1258.87,1672.56 1259.5,1668.5C 1260.83,1579.17 1260.83,1489.83 1259.5,1400.5C 1258.85,1396.7 1256.85,1393.87 1253.5,1392C 1243.46,1392.12 1233.46,1392.96 1223.5,1394.5C 1223.5,1393.83 1223.5,1393.17 1223.5,1392.5C 1230.72,1391.92 1237.88,1390.92 1245,1389.5C 1247.79,1390.2 1250.62,1390.37 1253.5,1390C 1258.83,1392.37 1261.66,1396.54 1262,1402.5C 1262.67,1490.17 1262.67,1577.83 1262,1665.5C 1261.59,1669.3 1260.76,1672.96 1259.5,1676.5C 1256.65,1678.51 1253.48,1680.18 1250,1681.5C 992.1,1720.18 733.934,1758.84 475.5,1797.5 Z"/></g>
<g><path style="opacity:1" fill="#0e1d33" d="M 479.5,1794.5 C 482.19,1791.82 485.19,1789.48 488.5,1787.5C 743.515,1749.34 997.348,1711.34 1250,1673.5C 1251.83,1670.4 1253.16,1667.06 1254,1663.5C 1254.67,1577.83 1254.67,1492.17 1254,1406.5C 1253.26,1403.49 1251.92,1400.82 1250,1398.5C 1249.59,1398.96 1249.09,1399.29 1248.5,1399.5C 1247.53,1398.51 1246.37,1397.84 1245,1397.5C 1237.88,1398.92 1230.72,1399.92 1223.5,1400.5C 1223.5,1398.5 1223.5,1396.5 1223.5,1394.5C 1233.46,1392.96 1243.46,1392.12 1253.5,1392C 1256.85,1393.87 1258.85,1396.7 1259.5,1400.5C 1260.83,1489.83 1260.83,1579.17 1259.5,1668.5C 1258.87,1672.56 1256.87,1675.73 1253.5,1678C 1247.33,1679.98 1240.99,1681.31 1234.5,1682C 982.844,1719.64 731.177,1757.14 479.5,1794.5 Z"/></g>
<g><path style="opacity:1" fill="#111d2f" d="M 488.5,1787.5 C 500.313,1777.86 512.313,1768.36 524.5,1759C 436.448,1771.32 348.448,1784.15 260.5,1797.5C 260.5,1788.83 260.5,1780.17 260.5,1771.5C 258.833,1771.5 257.167,1771.5 255.5,1771.5C 578.022,1723.19 900.689,1674.85 1223.5,1626.5C 1223.5,1551.17 1223.5,1475.83 1223.5,1400.5C 1230.72,1399.92 1237.88,1398.92 1245,1397.5C 1246.37,1397.84 1247.53,1398.51 1248.5,1399.5C 1249.09,1399.29 1249.59,1398.96 1250,1398.5C 1251.92,1400.82 1253.26,1403.49 1254,1406.5C 1254.67,1492.17 1254.67,1577.83 1254,1663.5C 1253.16,1667.06 1251.83,1670.4 1250,1673.5C 997.348,1711.34 743.515,1749.34 488.5,1787.5 Z"/></g>
<g><path style="opacity:1" fill="#fdfefe" d="M 1197.5,1427.5 C 1198.5,1427.47 1199.16,1427.97 1199.5,1429C 1197.26,1448.18 1194.92,1467.35 1192.5,1486.5C 1189.75,1486.27 1187.08,1486.61 1184.5,1487.5C 1183.5,1468.85 1183.17,1450.18 1183.5,1431.5C 1188.43,1430.74 1193.1,1429.41 1197.5,1427.5 Z"/></g>
<g><path style="opacity:1" fill="#fcfefe" d="M 1165.5,1438.5 C 1166.83,1438.5 1168.17,1438.5 1169.5,1438.5C 1167.94,1460.14 1167.44,1481.81 1168,1503.5C 1170.13,1504.78 1172.3,1504.78 1174.5,1503.5C 1175.59,1511.92 1171.76,1516.26 1163,1516.5C 1158.53,1516.18 1155.03,1514.18 1152.5,1510.5C 1146.26,1520.19 1137.92,1522.69 1127.5,1518C 1125.63,1515.63 1123.96,1513.13 1122.5,1510.5C 1115.51,1522.33 1105.18,1527.83 1091.5,1527C 1088.07,1525.57 1085.24,1523.4 1083,1520.5C 1077.11,1529.7 1068.94,1533.2 1058.5,1531C 1056.19,1529.36 1054.69,1527.2 1054,1524.5C 1049.59,1533.46 1042.42,1537.29 1032.5,1536C 1029.78,1534.4 1027.61,1532.24 1026,1529.5C 1020.22,1540.32 1011.72,1543.15 1000.5,1538C 999.213,1536.59 998.046,1535.09 997,1533.5C 991.054,1544.04 982.721,1546.71 972,1541.5C 970.183,1536.52 968.517,1536.85 967,1542.5C 960.662,1549.8 953.162,1551.3 944.5,1547C 939.289,1541.36 937.289,1534.7 938.5,1527C 937.552,1512.79 942.885,1501.79 954.5,1494C 959.47,1491.85 964.304,1492.01 969,1494.5C 970.3,1487 970.967,1479.33 971,1471.5C 975.977,1469.45 981.144,1468.12 986.5,1467.5C 985.57,1486.17 984.57,1504.83 983.5,1523.5C 983.544,1526.55 983.877,1529.55 984.5,1532.5C 988.616,1534.29 991.783,1533.29 994,1529.5C 992.314,1515.66 995.314,1502.99 1003,1491.5C 1009.51,1483.53 1017.18,1481.87 1026,1486.5C 1026.49,1485.21 1026.66,1483.87 1026.5,1482.5C 1031.46,1481.57 1036.46,1480.91 1041.5,1480.5C 1040.81,1494.83 1040.65,1509.16 1041,1523.5C 1044.29,1526.31 1047.29,1525.98 1050,1522.5C 1050.97,1520.61 1051.64,1518.61 1052,1516.5C 1053.01,1505.17 1053.85,1493.84 1054.5,1482.5C 1053.5,1482.5 1052.5,1482.5 1051.5,1482.5C 1051.5,1481.17 1051.5,1479.83 1051.5,1478.5C 1052.5,1478.5 1053.5,1478.5 1054.5,1478.5C 1054.15,1473.02 1054.82,1467.69 1056.5,1462.5C 1061.12,1460.96 1065.79,1459.63 1070.5,1458.5C 1070.5,1464.17 1070.5,1469.83 1070.5,1475.5C 1072.26,1475.64 1073.93,1475.31 1075.5,1474.5C 1076.45,1476.05 1076.79,1477.71 1076.5,1479.5C 1074.21,1479.24 1072.04,1479.58 1070,1480.5C 1068.56,1493.47 1068.23,1506.47 1069,1519.5C 1073.04,1521.15 1076.37,1520.15 1079,1516.5C 1080.27,1508.94 1080.93,1501.27 1081,1493.5C 1083.4,1482.15 1089.9,1474.32 1100.5,1470C 1112.94,1467.11 1118.44,1471.94 1117,1484.5C 1113.69,1494.47 1107.03,1501.14 1097,1504.5C 1095.51,1516.32 1100.34,1519.82 1111.5,1515C 1120.87,1508.75 1124.37,1499.91 1122,1488.5C 1124.19,1477.26 1130.36,1469.09 1140.5,1464C 1143.83,1463.33 1147.17,1463.33 1150.5,1464C 1151.33,1464.83 1152.17,1465.67 1153,1466.5C 1153.86,1458.52 1154.52,1450.52 1155,1442.5C 1158.55,1441.04 1162.05,1439.71 1165.5,1438.5 Z"/></g>
<g><path style="opacity:1" fill="#081e3f" d="M 260.5,1439.5 C 260.809,1450.25 260.476,1460.91 259.5,1471.5C 256.763,1471.4 254.096,1471.73 251.5,1472.5C 251.5,1462.17 251.5,1451.83 251.5,1441.5C 250.5,1441.5 249.5,1441.5 248.5,1441.5C 252.236,1440.01 256.236,1439.34 260.5,1439.5 Z"/></g>
<g><path style="opacity:1" fill="#72d0d3" d="M 1145.5,1469.5 C 1151.57,1469.08 1153.9,1471.91 1152.5,1478C 1152.13,1486.91 1151.3,1495.74 1150,1504.5C 1148.23,1506.77 1146.07,1508.44 1143.5,1509.5C 1141.4,1509.37 1139.9,1508.37 1139,1506.5C 1136.25,1495.12 1137.25,1484.12 1142,1473.5C 1143.38,1472.29 1144.54,1470.96 1145.5,1469.5 Z"/></g>
<g><path style="opacity:1" fill="#74d1d4" d="M 1103.5,1475.5 C 1105.14,1475.29 1106.64,1475.62 1108,1476.5C 1109.64,1484.58 1107.47,1491.41 1101.5,1497C 1099.98,1498.01 1098.31,1498.51 1096.5,1498.5C 1095.6,1489.77 1097.93,1482.1 1103.5,1475.5 Z"/></g>
<g><path style="opacity:1" fill="#73d1d3" d="M 1019.5,1489.5 C 1021.72,1489.18 1023.56,1489.84 1025,1491.5C 1025.68,1501.86 1025.35,1512.2 1024,1522.5C 1020.4,1530.67 1016.07,1531.33 1011,1524.5C 1009.09,1513.21 1010.76,1502.55 1016,1492.5C 1017.52,1491.84 1018.69,1490.84 1019.5,1489.5 Z"/></g>
<g><path style="opacity:1" fill="#fcfefe" d="M 799.5,1490.5 C 810.576,1489.58 816.242,1494.58 816.5,1505.5C 814.833,1505.5 813.167,1505.5 811.5,1505.5C 811.364,1499.63 808.697,1498.13 803.5,1501C 800.588,1506.46 799.755,1512.29 801,1518.5C 803.041,1517.58 805.208,1517.24 807.5,1517.5C 807.762,1518.98 807.429,1520.31 806.5,1521.5C 804.253,1522.37 801.92,1522.71 799.5,1522.5C 798.614,1541.16 797.781,1559.83 797,1578.5C 797.825,1588.11 794.658,1595.95 787.5,1602C 775.705,1607.76 768.372,1604.43 765.5,1592C 765.7,1588.77 766.867,1585.93 769,1583.5C 772.417,1580.54 776.25,1578.21 780.5,1576.5C 781.631,1574.93 781.798,1573.26 781,1571.5C 775.293,1578.78 768.126,1580.95 759.5,1578C 756.769,1575.37 754.936,1572.21 754,1568.5C 745.46,1583.17 733.293,1587.84 717.5,1582.5C 715.165,1579.83 713.331,1576.83 712,1573.5C 707.124,1579.01 701.957,1584.18 696.5,1589C 689.251,1592.96 681.917,1593.29 674.5,1590C 670.787,1587.08 668.787,1583.24 668.5,1578.5C 672.383,1572.37 675.216,1565.71 677,1558.5C 678.704,1551.24 680.038,1543.9 681,1536.5C 686.281,1534.13 691.781,1532.46 697.5,1531.5C 700.116,1545.86 702.949,1560.19 706,1574.5C 707.667,1572.83 709.333,1571.17 711,1569.5C 709.922,1557.02 712.922,1545.68 720,1535.5C 727.342,1527.59 735.842,1525.76 745.5,1530C 750.66,1546.17 744.993,1557.01 728.5,1562.5C 726.887,1575.03 731.887,1578.53 743.5,1573C 747.798,1569.91 751.298,1566.08 754,1561.5C 754.926,1542.83 755.926,1524.16 757,1505.5C 762,1503.83 767,1502.17 772,1500.5C 770.775,1522.45 770.109,1544.45 770,1566.5C 776.481,1568.59 780.481,1566.26 782,1559.5C 783.45,1541.17 784.784,1522.84 786,1504.5C 788.661,1498.01 793.161,1493.34 799.5,1490.5 Z"/></g>
<g><path style="opacity:1" fill="#fbfdfe" d="M 1184.5,1495.5 C 1195.68,1496.04 1198.68,1501.21 1193.5,1511C 1183.43,1514.55 1178.93,1511.05 1180,1500.5C 1181.02,1498.31 1182.52,1496.65 1184.5,1495.5 Z"/></g>
<g><path style="opacity:1" fill="#fcfefe" d="M 902.5,1497.5 C 903.833,1497.5 905.167,1497.5 906.5,1497.5C 906.336,1500.19 906.503,1502.85 907,1505.5C 912.773,1499.42 919.606,1497.92 927.5,1501C 933.286,1506.95 935.619,1514.12 934.5,1522.5C 935.217,1532.43 932.717,1541.43 927,1549.5C 920.368,1555.72 912.868,1557.39 904.5,1554.5C 902.896,1563.42 902.23,1572.42 902.5,1581.5C 897.217,1582.71 892.217,1584.71 887.5,1587.5C 887.167,1585.83 886.833,1584.17 886.5,1582.5C 887.334,1573.15 887.834,1563.82 888,1554.5C 882.929,1560.75 876.429,1563.25 868.5,1562C 865.894,1560.06 864.061,1557.56 863,1554.5C 857.473,1565.89 849.14,1568.89 838,1563.5C 835.112,1558.56 833.945,1553.23 834.5,1547.5C 835.097,1535.82 835.764,1524.16 836.5,1512.5C 841.485,1511.75 846.485,1511.09 851.5,1510.5C 850.729,1524.83 850.562,1539.16 851,1553.5C 853.742,1556.1 856.242,1555.77 858.5,1552.5C 859.609,1550.61 860.443,1548.61 861,1546.5C 861.435,1533.8 862.268,1521.14 863.5,1508.5C 868.434,1507.42 873.434,1506.76 878.5,1506.5C 877.315,1520.48 876.815,1534.48 877,1548.5C 879.581,1550.9 882.414,1551.06 885.5,1549C 887.646,1546.21 888.813,1543.04 889,1539.5C 889.944,1526.17 890.778,1512.84 891.5,1499.5C 895.387,1499.35 899.054,1498.69 902.5,1497.5 Z"/></g>
<g><path style="opacity:1" fill="#74d1d4" d="M 962.5,1498.5 C 965.044,1498.1 967.211,1498.77 969,1500.5C 968.91,1510.49 968.577,1520.49 968,1530.5C 966.654,1534.51 963.987,1537.18 960,1538.5C 958.527,1538.1 957.194,1537.43 956,1536.5C 951.163,1522.53 953.33,1509.86 962.5,1498.5 Z"/></g>
<g><path style="opacity:1" fill="#73d1d4" d="M 909.5,1508.5 C 914.352,1507.28 917.519,1508.94 919,1513.5C 920.136,1522.67 919.469,1531.67 917,1540.5C 914.592,1546.04 910.592,1548.04 905,1546.5C 904.434,1535.48 904.768,1524.48 906,1513.5C 907.176,1511.8 908.343,1510.14 909.5,1508.5 Z"/></g>
<g><path style="opacity:1" fill="#78d2d5" d="M 734.5,1533.5 C 739.805,1534.08 741.638,1537.08 740,1542.5C 738.63,1549.37 734.797,1554.37 728.5,1557.5C 726.743,1548.53 728.743,1540.53 734.5,1533.5 Z"/></g>
<g><path style="opacity:1" fill="#fcfefe" d="M 657.5,1540.5 C 666.153,1539.99 669.653,1543.99 668,1552.5C 665.692,1556.3 662.525,1557.3 658.5,1555.5C 657.854,1553.02 656.354,1551.36 654,1550.5C 651.719,1551.78 649.719,1553.44 648,1555.5C 646.366,1569.78 645.532,1584.12 645.5,1598.5C 640.425,1598.65 635.425,1599.32 630.5,1600.5C 630.66,1598.8 630.494,1597.13 630,1595.5C 625.223,1601.47 619.056,1603.97 611.5,1603C 608.272,1601.44 606.105,1598.94 605,1595.5C 600.256,1605.12 592.756,1608.62 582.5,1606C 579.57,1603.88 577.737,1601.05 577,1597.5C 576.558,1589.48 576.558,1581.48 577,1573.5C 574.457,1575.1 571.791,1576.44 569,1577.5C 570.264,1590.25 566.43,1601.09 557.5,1610C 549.686,1615.43 541.686,1615.76 533.5,1611C 532.789,1609.75 531.956,1608.58 531,1607.5C 527.62,1612.55 523.286,1616.55 518,1619.5C 518.354,1627.64 516.687,1635.31 513,1642.5C 507.51,1647.77 501.01,1649.61 493.5,1648C 487.891,1644.72 486.058,1639.89 488,1633.5C 491.274,1628.23 495.774,1624.39 501.5,1622C 502.576,1620.27 502.743,1618.44 502,1616.5C 496.728,1622.78 490.228,1624.61 482.5,1622C 480.383,1620.27 478.883,1618.1 478,1615.5C 477.377,1600.16 477.543,1584.82 478.5,1569.5C 483.744,1568.19 489.077,1567.52 494.5,1567.5C 492.835,1581.46 492.335,1595.46 493,1609.5C 494.418,1611.36 496.251,1611.86 498.5,1611C 500.617,1609.27 502.117,1607.1 503,1604.5C 503.786,1591.16 504.62,1577.83 505.5,1564.5C 510.482,1563.95 515.482,1563.61 520.5,1563.5C 519.849,1577 519.183,1590.5 518.5,1604C 518.201,1615.65 521.035,1616.15 527,1605.5C 527.808,1603.58 528.308,1601.58 528.5,1599.5C 526.696,1586.68 529.53,1575.01 537,1564.5C 545.085,1555.79 554.085,1554.46 564,1560.5C 566.437,1563.38 567.77,1566.71 568,1570.5C 571.301,1571.71 574.301,1571.04 577,1568.5C 577.912,1563.54 578.412,1558.54 578.5,1553.5C 583.452,1552.51 588.452,1551.84 593.5,1551.5C 592.729,1565.83 592.562,1580.16 593,1594.5C 598.621,1595.93 601.954,1593.59 603,1587.5C 603.6,1574.83 604.267,1562.16 605,1549.5C 610.02,1548 615.187,1547.33 620.5,1547.5C 619.315,1561.48 618.815,1575.48 619,1589.5C 621.925,1592.06 624.925,1592.06 628,1589.5C 629.75,1586.75 630.75,1583.75 631,1580.5C 631.5,1568.5 632,1556.5 632.5,1544.5C 637.851,1543.96 643.184,1543.3 648.5,1542.5C 648.338,1544.53 648.505,1546.53 649,1548.5C 651.729,1545.6 654.562,1542.93 657.5,1540.5 Z"/></g>
<g><path style="opacity:1" fill="#79d2d5" d="M 683.5,1548.5 C 686.431,1556.88 688.764,1565.55 690.5,1574.5C 689.419,1582.05 685.086,1585.21 677.5,1584C 672.897,1580.16 673.564,1578.16 679.5,1578C 682.262,1574.37 681.928,1571.04 678.5,1568C 680.562,1561.58 682.229,1555.08 683.5,1548.5 Z"/></g>
<g><path style="opacity:1" fill="#74d1d4" d="M 551.5,1563.5 C 554.044,1563.1 556.211,1563.77 558,1565.5C 558.343,1568.32 557.843,1570.99 556.5,1573.5C 560.562,1582.16 560.395,1590.82 556,1599.5C 553.261,1603.78 549.927,1604.45 546,1601.5C 541.472,1587.87 543.306,1575.2 551.5,1563.5 Z"/></g>
<g><path style="opacity:1" fill="#fbfdfe" d="M 309.5,1568.5 C 311.924,1568.19 314.257,1568.53 316.5,1569.5C 309.167,1581.5 301.833,1593.5 294.5,1605.5C 298.459,1606.33 302.459,1606.83 306.5,1607C 308.917,1608.66 310.75,1610.83 312,1613.5C 311.767,1624.49 311.767,1635.49 312,1646.5C 312.637,1648.3 313.803,1649.64 315.5,1650.5C 311.851,1652.33 308.017,1653.66 304,1654.5C 298.058,1653.3 295.558,1649.64 296.5,1643.5C 297.702,1634.86 298.202,1626.19 298,1617.5C 295.928,1612.86 292.428,1611.36 287.5,1613C 286.186,1627.09 285.186,1641.26 284.5,1655.5C 279.47,1655.98 274.47,1656.65 269.5,1657.5C 270.062,1635.65 271.062,1613.82 272.5,1592C 273.547,1582.61 271.38,1581.44 266,1588.5C 260.609,1597.03 260.109,1605.87 264.5,1615C 259.788,1616.44 255.955,1615.28 253,1611.5C 251.524,1606.92 251.19,1602.26 252,1597.5C 259.464,1582.35 271.631,1574.01 288.5,1572.5C 287.921,1583.17 287.755,1593.83 288,1604.5C 294,1593.17 300,1581.83 306,1570.5C 307.302,1569.92 308.469,1569.25 309.5,1568.5 Z"/></g>
<g><path style="opacity:1" fill="#fcfefe" d="M 416.5,1574.5 C 417.833,1574.5 419.167,1574.5 420.5,1574.5C 420.336,1577.19 420.503,1579.85 421,1582.5C 426.773,1576.42 433.606,1574.92 441.5,1578C 447.286,1583.95 449.619,1591.12 448.5,1599.5C 449.217,1609.43 446.717,1618.43 441,1626.5C 434.368,1632.72 426.868,1634.39 418.5,1631.5C 416.896,1640.42 416.23,1649.42 416.5,1658.5C 411.217,1659.71 406.217,1661.71 401.5,1664.5C 401.167,1662.83 400.833,1661.17 400.5,1659.5C 401.509,1648.17 402.009,1636.84 402,1625.5C 394.763,1637.2 384.263,1642.03 370.5,1640C 365.948,1638.41 363.115,1635.25 362,1630.5C 352.993,1646.28 340.326,1650.61 324,1643.5C 320.255,1637.92 318.755,1631.75 319.5,1625C 318.98,1611.04 324.314,1600.04 335.5,1592C 349.667,1586.01 356.5,1590.51 356,1605.5C 352.835,1615.83 346.002,1622.17 335.5,1624.5C 335.536,1638.16 341.536,1641.33 353.5,1634C 356.04,1631.8 358.207,1629.3 360,1626.5C 358.402,1611.7 362.569,1598.87 372.5,1588C 378.54,1583.82 385.206,1582.49 392.5,1584C 397.259,1588.49 398.759,1593.99 397,1600.5C 393.545,1610.3 386.712,1615.97 376.5,1617.5C 376.089,1630.57 381.755,1634.07 393.5,1628C 397.036,1624.8 400.203,1621.3 403,1617.5C 403.907,1603.83 404.741,1590.17 405.5,1576.5C 409.387,1576.35 413.054,1575.69 416.5,1574.5 Z"/></g>
<g><path style="opacity:1" fill="#79d2d5" d="M 780.5,1579.5 C 782.297,1585.09 781.297,1590.25 777.5,1595C 772.008,1595.49 770.175,1592.99 772,1587.5C 774.157,1584.02 776.99,1581.36 780.5,1579.5 Z"/></g>
<g><path style="opacity:1" fill="#73d1d4" d="M 423.5,1585.5 C 428.352,1584.28 431.519,1585.94 433,1590.5C 434.136,1599.67 433.469,1608.67 431,1617.5C 428.592,1623.04 424.592,1625.04 419,1623.5C 418.434,1612.48 418.768,1601.48 420,1590.5C 421.176,1588.8 422.343,1587.14 423.5,1585.5 Z"/></g>
<g><path style="opacity:1" fill="#77d2d5" d="M 384.5,1588.5 C 386.911,1588.14 388.411,1589.14 389,1591.5C 390.225,1599.43 387.725,1605.93 381.5,1611C 379.975,1612.01 378.308,1612.51 376.5,1612.5C 376.197,1603.41 378.863,1595.41 384.5,1588.5 Z"/></g>
<g><path style="opacity:1" fill="#77d2d5" d="M 343.5,1595.5 C 345.911,1595.14 347.411,1596.14 348,1598.5C 348.849,1608.14 345.015,1615.14 336.5,1619.5C 334.828,1610.2 337.162,1602.2 343.5,1595.5 Z"/></g>
<g><path style="opacity:1" fill="#73d1d4" d="M 500.5,1627.5 C 502.09,1631.92 501.424,1636.09 498.5,1640C 497.167,1640.67 495.833,1640.67 494.5,1640C 493.409,1637.94 493.242,1635.77 494,1633.5C 496.063,1631.27 498.229,1629.27 500.5,1627.5 Z"/></g>
<g><path style="opacity:1" fill="#55a0a3" d="M 488.5,1787.5 C 485.19,1789.48 482.19,1791.82 479.5,1794.5C 478.128,1795.51 476.795,1796.51 475.5,1797.5C 472.94,1799.27 470.607,1801.27 468.5,1803.5C 467.833,1803.83 467.167,1804.17 466.5,1804.5C 465.833,1853.83 465.167,1903.17 464.5,1952.5C 413.833,1922.5 363.167,1892.5 312.5,1862.5C 309.167,1860.5 305.833,1858.5 302.5,1856.5C 300.33,1854.91 297.996,1853.58 295.5,1852.5C 292.833,1850.83 290.167,1849.17 287.5,1847.5C 271.002,1838.09 254.668,1828.42 238.5,1818.5C 231.027,1814.26 223.694,1809.76 216.5,1805C 228.248,1802.68 239.915,1800.52 251.5,1798.5C 254.57,1798.63 257.57,1798.3 260.5,1797.5C 348.448,1784.15 436.448,1771.32 524.5,1759C 512.313,1768.36 500.313,1777.86 488.5,1787.5 Z"/></g>
<g><path style="opacity:1" fill="#081f40" d="M 248.5,1772.5 C 250.607,1771.53 252.941,1771.2 255.5,1771.5C 257.167,1771.5 258.833,1771.5 260.5,1771.5C 260.5,1780.17 260.5,1788.83 260.5,1797.5C 257.57,1798.3 254.57,1798.63 251.5,1798.5C 251.5,1789.83 251.5,1781.17 251.5,1772.5C 250.5,1772.5 249.5,1772.5 248.5,1772.5 Z"/></g>
<g><path style="opacity:1" fill="#051e41" d="M 287.5,1847.5 C 290.167,1849.17 292.833,1850.83 295.5,1852.5C 294.249,1854.22 292.749,1854.55 291,1853.5C 287.27,1854.92 283.437,1856.08 279.5,1857C 274.567,1858.59 271.9,1861.93 271.5,1867C 273.616,1868.97 275.949,1871.47 278.5,1874.5C 348.157,1916 417.824,1957.5 487.5,1999C 497.843,2005.51 505.176,2003.18 509.5,1992C 509.167,1991.67 508.833,1991.33 508.5,1991C 509.33,1953.24 509.83,1915.4 510,1877.5C 510.375,1872.79 511.042,1868.12 512,1863.5C 515.083,1858.41 518.917,1853.91 523.5,1850C 530.464,1844.61 537.297,1839.11 544,1833.5C 545.602,1831.69 546.936,1829.69 548,1827.5C 548.667,1825.5 548.667,1823.5 548,1821.5C 544.288,1818.61 540.288,1817.28 536,1817.5C 513.173,1821.31 490.007,1824.64 466.5,1827.5C 466.5,1825.83 466.5,1824.17 466.5,1822.5C 469.613,1823.1 472.613,1822.43 475.5,1820.5C 476.167,1820.83 476.833,1821.17 477.5,1821.5C 479.801,1820.04 482.135,1819.71 484.5,1820.5C 486.674,1819.14 488.841,1818.8 491,1819.5C 493.085,1817.96 495.252,1817.62 497.5,1818.5C 499.801,1817.04 502.135,1816.71 504.5,1817.5C 506.801,1816.04 509.135,1815.71 511.5,1816.5C 513.801,1815.04 516.135,1814.71 518.5,1815.5C 522.256,1814.84 526.089,1813.84 530,1812.5C 532.592,1813.04 535.258,1812.71 538,1811.5C 541.847,1812.8 545.68,1812.8 549.5,1811.5C 552.378,1812.74 555.378,1814.57 558.5,1817C 558.167,1817.33 557.833,1817.67 557.5,1818C 560.054,1820.27 560.054,1822.6 557.5,1825C 557.833,1825.33 558.167,1825.67 558.5,1826C 556.699,1826.32 556.366,1826.98 557.5,1828C 555.68,1828.98 554.513,1830.48 554,1832.5C 542.213,1841.64 530.713,1851.14 519.5,1861C 518.33,1863.18 517.164,1865.35 516,1867.5C 515.667,1907.5 515.333,1947.5 515,1987.5C 514.713,1989.89 514.213,1992.22 513.5,1994.5C 513.833,1995.17 514.167,1995.83 514.5,1996.5C 512.855,1998.93 511.689,2001.59 511,2004.5C 506.453,2009.34 501.12,2010.34 495,2007.5C 494.667,2007.83 494.333,2008.17 494,2008.5C 419.064,1964.95 344.564,1920.79 270.5,1876C 268.185,1873.17 265.851,1870.34 263.5,1867.5C 263.566,1864.97 263.566,1862.47 263.5,1860C 265.301,1859.68 265.634,1859.02 264.5,1858C 267.411,1855.47 270.578,1853.31 274,1851.5C 274.333,1851.83 274.667,1852.17 275,1852.5C 277.454,1851.66 279.954,1850.66 282.5,1849.5C 284.941,1850.78 286.608,1850.11 287.5,1847.5 Z"/></g>
<g><path style="opacity:1" fill="#091d3b" d="M 295.5,1852.5 C 297.996,1853.58 300.33,1854.91 302.5,1856.5C 297.005,1858.17 291.338,1859.67 285.5,1861C 281.262,1863.17 280.428,1866.34 283,1870.5C 285.074,1872.45 287.241,1874.29 289.5,1876C 354.665,1914.41 419.665,1953.08 484.5,1992C 488.186,1994.34 492.186,1995.84 496.5,1996.5C 499.107,1995.86 501.44,1994.7 503.5,1993C 503.167,1992.67 502.833,1992.33 502.5,1992C 503.26,1990.56 503.926,1989.06 504.5,1987.5C 504.509,1948.01 504.509,1908.51 504.5,1869C 506.245,1863.76 508.745,1858.92 512,1854.5C 517.874,1848.96 524.041,1843.79 530.5,1839C 534.157,1836.01 536.823,1832.34 538.5,1828C 535.731,1824.99 532.231,1823.82 528,1824.5C 507.445,1826.79 486.945,1829.45 466.5,1832.5C 466.5,1830.83 466.5,1829.17 466.5,1827.5C 490.007,1824.64 513.173,1821.31 536,1817.5C 540.288,1817.28 544.288,1818.61 548,1821.5C 548.667,1823.5 548.667,1825.5 548,1827.5C 546.936,1829.69 545.602,1831.69 544,1833.5C 537.297,1839.11 530.464,1844.61 523.5,1850C 518.917,1853.91 515.083,1858.41 512,1863.5C 511.042,1868.12 510.375,1872.79 510,1877.5C 509.83,1915.4 509.33,1953.24 508.5,1991C 508.833,1991.33 509.167,1991.67 509.5,1992C 505.176,2003.18 497.843,2005.51 487.5,1999C 417.824,1957.5 348.157,1916 278.5,1874.5C 275.949,1871.47 273.616,1868.97 271.5,1867C 271.9,1861.93 274.567,1858.59 279.5,1857C 283.437,1856.08 287.27,1854.92 291,1853.5C 292.749,1854.55 294.249,1854.22 295.5,1852.5 Z"/></g>
<g><path style="opacity:1" fill="#0d1d34" d="M 302.5,1856.5 C 305.833,1858.5 309.167,1860.5 312.5,1862.5C 307.95,1864.12 303.45,1866.12 299,1868.5C 299.546,1871.09 301.046,1873.26 303.5,1875C 365.8,1912.47 428.467,1949.3 491.5,1985.5C 494.655,1984.89 495.822,1983.23 495,1980.5C 495.333,1980.83 495.667,1981.17 496,1981.5C 496.333,1945.83 496.667,1910.17 497,1874.5C 497.246,1871.11 497.746,1867.78 498.5,1864.5C 497.187,1862.48 497.853,1861.31 500.5,1861C 500.043,1860.59 499.709,1860.09 499.5,1859.5C 500.667,1857.17 501.833,1854.83 503,1852.5C 508.055,1847.95 512.555,1842.95 516.5,1837.5C 516.291,1836.91 515.957,1836.41 515.5,1836C 512.792,1835.15 510.292,1834.65 508,1834.5C 494.25,1836.82 480.417,1838.82 466.5,1840.5C 466.5,1837.83 466.5,1835.17 466.5,1832.5C 486.945,1829.45 507.445,1826.79 528,1824.5C 532.231,1823.82 535.731,1824.99 538.5,1828C 536.823,1832.34 534.157,1836.01 530.5,1839C 524.041,1843.79 517.874,1848.96 512,1854.5C 508.745,1858.92 506.245,1863.76 504.5,1869C 504.509,1908.51 504.509,1948.01 504.5,1987.5C 503.926,1989.06 503.26,1990.56 502.5,1992C 502.833,1992.33 503.167,1992.67 503.5,1993C 501.44,1994.7 499.107,1995.86 496.5,1996.5C 492.186,1995.84 488.186,1994.34 484.5,1992C 419.665,1953.08 354.665,1914.41 289.5,1876C 287.241,1874.29 285.074,1872.45 283,1870.5C 280.428,1866.34 281.262,1863.17 285.5,1861C 291.338,1859.67 297.005,1858.17 302.5,1856.5 Z"/></g>
<g><path style="opacity:1" fill="#101d2f" d="M 312.5,1862.5 C 363.167,1892.5 413.833,1922.5 464.5,1952.5C 464.56,1953.04 464.893,1953.38 465.5,1953.5C 466.5,1915.84 466.833,1878.17 466.5,1840.5C 480.417,1838.82 494.25,1836.82 508,1834.5C 510.292,1834.65 512.792,1835.15 515.5,1836C 515.957,1836.41 516.291,1836.91 516.5,1837.5C 512.555,1842.95 508.055,1847.95 503,1852.5C 501.833,1854.83 500.667,1857.17 499.5,1859.5C 499.709,1860.09 500.043,1860.59 500.5,1861C 497.853,1861.31 497.187,1862.48 498.5,1864.5C 497.746,1867.78 497.246,1871.11 497,1874.5C 496.667,1910.17 496.333,1945.83 496,1981.5C 495.667,1981.17 495.333,1980.83 495,1980.5C 495.822,1983.23 494.655,1984.89 491.5,1985.5C 428.467,1949.3 365.8,1912.47 303.5,1875C 301.046,1873.26 299.546,1871.09 299,1868.5C 303.45,1866.12 307.95,1864.12 312.5,1862.5 Z"/></g>
<g><path style="opacity:1" fill="#386a75" d="M 466.5,1804.5 C 466.5,1805.83 466.5,1807.17 466.5,1808.5C 466.5,1813.17 466.5,1817.83 466.5,1822.5C 466.5,1824.17 466.5,1825.83 466.5,1827.5C 466.5,1829.17 466.5,1830.83 466.5,1832.5C 466.5,1835.17 466.5,1837.83 466.5,1840.5C 466.833,1878.17 466.5,1915.84 465.5,1953.5C 464.893,1953.38 464.56,1953.04 464.5,1952.5C 465.167,1903.17 465.833,1853.83 466.5,1804.5 Z"/></g>
</svg>
